<?xml version="1.0" encoding="utf-8"?>
<!-- Generator: Adobe Illustrator 27.5.0, SVG Export Plug-In . SVG Version: 6.00 Build 0)  -->
<svg version="1.1" id="Layer_1" xmlns="http://www.w3.org/2000/svg" xmlns:xlink="http://www.w3.org/1999/xlink" x="0px" y="0px"
	 viewBox="0 0 3000 2025" style="enable-background:new 0 0 3000 2025;" xml:space="preserve">
<rect style="fill:#FEFEFE;" width="3000" height="2025"/>
<g>
	<g>
		<g>
			<path style="fill:#FAD674;" d="M1820.66,615.823c-16.675,35.862-26.002,75.832-26.002,117.986
				c0,154.737,125.439,280.176,280.176,280.176s280.176-125.439,280.176-280.176c0-42.154-9.327-82.124-26.002-117.986
				C2225.786,615.823,1950.012,615.823,1820.66,615.823z"/>
			<path style="fill:#FAD674;" d="M2268.215,686.082c-19.835-92.969-86.496-173.541-182.934-206.725
				c-96.438-33.183-198.562-10.688-271.405,50.392L2268.215,686.082z"/>
		</g>
		<g>
			<path style="fill:#FAD674;" d="M2170.024,1352.758c-40.297-105.29-142.277-180.064-261.738-180.064
				c-154.737,0-280.176,125.439-280.176,280.176c0,53.658,15.094,103.786,41.253,146.389L2170.024,1352.758z"/>
			<path style="fill:#FAD674;" d="M1838.529,1590.353c45.907,32.867,102.15,52.22,162.916,52.22
				c154.737,0,280.176-125.439,280.176-280.176c0-23.954-3.013-47.202-8.668-69.395L1838.529,1590.353z"/>
		</g>
		<g>
			<path style="fill:#FAD674;" d="M1405.98,255.509l-673.987,998.547c83.866,43.85,179.265,68.656,280.459,68.656
				c334.771,0,606.157-271.386,606.157-606.157C1618.609,531.983,1536.109,366.686,1405.98,255.509z"/>
			<path style="fill:#FAD674;" d="M569.555,1287.52l762.467-935.736c-96.428-64.701-212.456-102.452-337.304-102.452
				c-334.771,0-606.157,271.386-606.157,606.157C388.56,1024.621,457.837,1177.568,569.555,1287.52z"/>
		</g>
		<circle style="fill:#FAD674;" cx="1371.171" cy="1429.771" r="82.918"/>
		<circle style="fill:#FAD674;" cx="2369.11" cy="1132.839" r="166.604"/>
		
			<ellipse transform="matrix(0.1602 -0.9871 0.9871 0.1602 705.9762 2317.4912)" style="fill:#FAD674;" cx="1714.93" cy="743.858" rx="57.204" ry="57.204"/>
	</g>
	<g>
		<g>
			<g>
				<path style="fill:#6C50B7;" d="M1190.676,1118.004c0,0-152.462-116.123-164.525-102.3
					c-12.063,13.823-23.75,87.864,0.375,106.451c24.125,18.587,158.488,89.096,173.397,74.474
					c7.082-6.945,6.939-14.287,4.836-20.082c-6.785-18.7-11.077-38.212-13.987-57.891L1190.676,1118.004z"/>
				<path style="fill:#19283F;" d="M1182.607,1126.711c-5.428-1.771-84.056-50.529-90.645-44.379
					c-6.589,6.15-10.542,25.477-7.028,29.87c3.514,4.393,89.035,42.653,89.035,42.653L1182.607,1126.711z"/>
				<path style="fill:#FFFFFF;" d="M1093.108,1119.758c-0.17,0-0.343-0.031-0.511-0.096c-0.738-0.282-1.107-1.109-0.825-1.848
					l12.715-33.225c0.283-0.737,1.11-1.108,1.848-0.824c0.738,0.282,1.107,1.109,0.825,1.848l-12.715,33.225
					C1094.227,1119.407,1093.684,1119.758,1093.108,1119.758z"/>
				<path style="fill:#FFFFFF;" d="M1105.823,1125.54c-0.17,0-0.343-0.031-0.511-0.096c-0.738-0.282-1.107-1.109-0.825-1.848
					l12.716-33.224c0.283-0.737,1.11-1.107,1.848-0.824c0.738,0.282,1.107,1.109,0.825,1.848l-12.716,33.224
					C1106.942,1125.189,1106.399,1125.54,1105.823,1125.54z"/>
				<path style="fill:#FFFFFF;" d="M1118.539,1131.322c-0.17,0-0.343-0.031-0.511-0.096c-0.738-0.282-1.107-1.109-0.825-1.848
					l12.715-33.224c0.283-0.737,1.111-1.107,1.848-0.824c0.738,0.282,1.107,1.109,0.825,1.848l-12.715,33.224
					C1119.658,1130.972,1119.115,1131.322,1118.539,1131.322z"/>
				<path style="fill:#FFFFFF;" d="M1131.254,1137.104c-0.17,0-0.343-0.031-0.511-0.096c-0.738-0.282-1.107-1.109-0.825-1.848
					l12.716-33.224c0.282-0.738,1.111-1.106,1.848-0.824c0.738,0.282,1.107,1.109,0.825,1.848l-12.716,33.224
					C1132.373,1136.754,1131.831,1137.104,1131.254,1137.104z"/>
				<path style="fill:#FFFFFF;" d="M1143.97,1144.426c-0.17,0-0.343-0.031-0.511-0.096c-0.738-0.282-1.107-1.109-0.825-1.848
					l12.715-33.224c0.283-0.737,1.109-1.106,1.848-0.824s1.107,1.109,0.825,1.848l-12.715,33.224
					C1145.089,1144.075,1144.546,1144.426,1143.97,1144.426z"/>
				<path style="fill:#FFFFFF;" d="M1156.686,1150.883c-0.17,0-0.343-0.031-0.511-0.096c-0.738-0.282-1.107-1.109-0.825-1.848
					l12.716-33.225c0.283-0.737,1.109-1.107,1.848-0.824c0.738,0.282,1.107,1.109,0.825,1.848l-12.716,33.225
					C1157.804,1150.532,1157.261,1150.883,1156.686,1150.883z"/>
			</g>
			<g>
				<g>
					<defs>
						<path id="XMLID_16_" d="M1942.942,853.851c0,0-143.227-75.456-196.311-11.36s60.18,143.434,60.18,143.434L1942.942,853.851z"
							/>
					</defs>
					<use xlink:href="#XMLID_16_"  style="overflow:visible;fill:#EF92C8;"/>
					<clipPath id="XMLID_00000030468534866848402610000014558154576044722081_">
						<use xlink:href="#XMLID_16_"  style="overflow:visible;"/>
					</clipPath>
					<path style="clip-path:url(#XMLID_00000030468534866848402610000014558154576044722081_);fill:#FAD674;" d="M1732.471,835.885
						c1.179-1.794,67.423-31.714,110.665-2.785s5.526,96.912,5.526,96.912l-91.73,25.61c0,0-29.801-33.599-32.595-60.569
						C1721.543,868.082,1732.471,835.885,1732.471,835.885z"/>
				</g>
				<g>
					<path style="fill:#19283F;" d="M2050.334,757.115c0,0-14.993,22.083-14.602,45.451s15.585,39.926,15.585,39.926l23.518-79.902
						L2050.334,757.115z"/>
					<path style="fill:#F9724D;" d="M2150.172,832.587c0-43.304-24.761-78.408-55.306-78.408s-55.306,35.105-55.306,78.408
						c0,22.487,6.679,42.761,17.376,57.058c-11.389,13.728-64.839,38.739-84.914,46.267l2.879,6.058
						c10.766,22.651,33.607,37.084,58.687,37.084l0,0c28.685,0,55.206-15.252,69.632-40.046l26.507-45.555
						C2142.201,879.078,2150.172,857.154,2150.172,832.587z"/>
					<path style="fill:#19283F;" d="M2048.315,790.236c0,0-35.284-24.617,9-66.789c24.06-22.913,47.024-26.214,59.356-25.955
						c2.842,0.06,3.699,3.891,1.159,5.166c-9.917,4.976-25.182,12.663-24.169,12.325c1.494-0.498,62.237-16.431,91.613-1.494
						c29.376,14.937-42.819,13.941-42.819,13.941s60.245,4.979,68.709,31.367c8.464,26.388-45.806,0-45.806,0
						s35.849,19.916,22.405,23.899c-13.443,3.983-73.471,4.37-73.471,4.37"/>
					<path style="fill:#19283F;" d="M2106.892,783.335l6.932,31.938c1.156,5.327,4.75,9.799,9.703,12.075l0,0
						c0,0,5.088-18.678,12.619-12.05c7.531,6.628,2.665,41.842-12.619,32.705l0,0c-1.044,11.447-0.01,22.988,3.053,34.068
						l3.147,11.383c0,0,35.261-24.773,38.146-47.855c2.885-23.083-4.088-72.855-4.088-72.855L2106.892,783.335z"/>
					<path style="fill:#19283F;" d="M2081.245,902.048c-17.736,0-25.259-10.985-25.621-11.532l2.625-1.741l-1.313,0.871l1.311-0.875
						c0.383,0.569,9.642,13.893,32.596,9.074l0.646,3.084C2087.753,901.713,2084.343,902.048,2081.245,902.048z"/>
					<path style="fill:#19283F;" d="M2085.552,821.548c0,2.513-2.038,4.551-4.551,4.551c-2.513,0-4.551-2.037-4.551-4.551
						c0-2.513,2.038-4.551,4.551-4.551C2083.515,816.997,2085.552,819.034,2085.552,821.548z"/>
					<path style="fill:#19283F;" d="M2055.111,820.573c0,2.513-2.038,4.551-4.551,4.551c-2.513,0-4.551-2.037-4.551-4.551
						c0-2.513,2.038-4.551,4.551-4.551C2053.073,816.022,2055.111,818.059,2055.111,820.573z"/>
					<path style="fill:#19283F;" d="M2073.376,811.735c0,0,14.529-9.723,28.053,0.447c0,0,0.559-10.506-6.929-12.07
						C2087.011,798.547,2073.153,803.017,2073.376,811.735z"/>
					<path style="fill:#19283F;" d="M2059.946,811.934c0,0-8.751-11.891-18.9-7.01l3.25-10.093
						C2044.296,794.831,2061.729,793.571,2059.946,811.934z"/>
					<path style="fill:#19283F;" d="M2052.337,858.565c-0.215,0-0.433-0.037-0.646-0.114c-6.016-2.188-16.781-7.458-18.97-13.334
						c-0.478-1.282-0.355-2.695,0.337-3.877c0.695-1.187,1.875-1.989,3.235-2.2c4.486-0.695,15.447-2.802,20.327-7.326
						c6.078-5.635,3.782-16.09,3.758-16.195c-0.231-1.017,0.403-2.031,1.42-2.264c1.015-0.234,2.029,0.398,2.265,1.415
						c0.119,0.514,2.825,12.68-4.872,19.816c-5.442,5.046-16.319,7.359-22.317,8.29c-0.318,0.049-0.483,0.256-0.553,0.375
						c-0.068,0.116-0.166,0.354-0.057,0.646c1.213,3.257,8.557,8.133,16.72,11.101c0.98,0.357,1.487,1.442,1.13,2.423
						C2053.834,858.088,2053.109,858.565,2052.337,858.565z"/>
					<path style="fill:#19283F;" d="M2063.676,877.856c-0.69,0-1.403-0.028-2.14-0.086c-1.041-0.082-1.818-0.993-1.736-2.033
						c0.082-1.041,0.991-1.821,2.033-1.736c10.033,0.797,14.739-5.046,16.88-9.682c-15.202,10.44-27.872,8.541-28.456,8.444
						c-1.031-0.168-1.73-1.14-1.563-2.17c0.168-1.029,1.139-1.727,2.166-1.563c0.22,0.034,14.396,2.028,30.182-11.234
						c0.601-0.505,1.451-0.586,2.135-0.205c0.686,0.381,1.064,1.146,0.952,1.922
						C2084.102,859.705,2081.266,877.856,2063.676,877.856z"/>
					<path style="fill:#F9724D;" d="M2106.891,788.571c-0.67,0-1.228-0.527-1.258-1.203c-0.032-0.695,0.506-1.285,1.201-1.317
						l40.436-1.847c0.691-0.039,1.285,0.505,1.316,1.201c0.032,0.695-0.506,1.285-1.201,1.316l-40.436,1.847
						C2106.93,788.571,2106.91,788.571,2106.891,788.571z"/>
					<path style="fill:#19283F;" d="M2125.018,843.787c-0.211,0-0.422-0.018-0.631-0.053c-0.687-0.117-1.147-0.768-1.03-1.455
						c0.117-0.687,0.783-1.146,1.454-1.03c1.946,0.335,5.38-3.619,7.327-8.461c1.727-4.295,1.782-7.929,0.139-9.042
						c-0.679-0.46-1.152-0.375-1.488-0.249c-2.493,0.935-5.029,7.384-6.042,11.229c-0.177,0.673-0.867,1.075-1.539,0.898
						c-0.674-0.177-1.075-0.866-0.898-1.539c0.302-1.147,3.075-11.252,7.593-12.948c1.27-0.478,2.579-0.297,3.789,0.522
						c2.774,1.88,3.068,6.392,0.785,12.069C2132.406,838.876,2128.575,843.787,2125.018,843.787z"/>
				</g>
				<g>
					<defs>
						<path id="XMLID_14_" d="M2103.221,939.009c0,0-100.607,29.719-62.175-38.55c0,0-52.481-60.152-121.726-43.786
							c-34.513,8.157-54.679,26.333-65.864,48.177c-49.715,97.084-150.022,157.696-259.095,157.557
							c-1.126-0.001-2.255-0.004-3.386-0.009c0,0,240.879,62.867,168.086,279.261
							C1759.061,1341.66,2352.087,1311.275,2103.221,939.009z"/>
					</defs>
					<use xlink:href="#XMLID_14_"  style="overflow:visible;fill:#EF92C8;"/>
					<clipPath id="XMLID_00000066479903685656966630000010732108460675035324_">
						<use xlink:href="#XMLID_14_"  style="overflow:visible;"/>
					</clipPath>
					<path style="clip-path:url(#XMLID_00000066479903685656966630000010732108460675035324_);fill:#FAD674;" d="M1903.124,875.965
						l182.428,177.215c0,0-40.348,15.502-89.731,60.398c-49.383,44.896,0,0,0,0l-184.57-162.713
						C1811.252,950.865,1873.806,887.893,1903.124,875.965"/>
					<path style="clip-path:url(#XMLID_00000066479903685656966630000010732108460675035324_);fill:#FAD674;" d="M1809.03,1255.12
						c0,0-20.31,84.764,87.334,27.364c20.401-10.879,112.33-69.21,112.33-69.21l15.565,78.908c0,0-121.358,63.436-267.94,59.781
						s0,0,0,0S1765.989,1269.467,1809.03,1255.12z"/>
					<path style="clip-path:url(#XMLID_00000066479903685656966630000010732108460675035324_);fill:#EF92C8;" d="M1741.724,1000.034
						c3.781,0.847,51.772,73.729,247.691,70.339l-197.3-118.644L1741.724,1000.034z"/>
				</g>
				<path style="fill:#19283F;" d="M1722.709,1346.115c0,0,116.106,15.29,101.935-93.356
					c-14.171-108.646-104.33-227.669-104.33-227.669L1722.709,1346.115z"/>
				<g>
					<defs>
						<path id="XMLID_4_" d="M1723.511,1034.108c0,0-40.252-123.737-107.338-146.815c-16.069-5.528-30.169,1.389-42.324,15.098
							c-40.741,30.696-138.506,110.705-117.334,157.045c18.987,41.557,74.727,101.495,105.061,132.385
							c-3.528,23.293-7.594,61.336-3.544,95.725c12.282,104.312,196.787,141.627,220.64,28.325
							C1802.525,1202.57,1723.511,1034.108,1723.511,1034.108z"/>
					</defs>
					<use xlink:href="#XMLID_4_"  style="overflow:visible;fill:#6C50B7;"/>
					<clipPath id="XMLID_00000160149471600263403140000016864204414357504702_">
						<use xlink:href="#XMLID_4_"  style="overflow:visible;"/>
					</clipPath>
					<path style="clip-path:url(#XMLID_00000160149471600263403140000016864204414357504702_);fill:#19283F;" d="M1472.485,990.813
						c0,0-22.214,113.425,97.065,84.733c119.279-28.692,108.284-87.376,108.284-87.376L1472.485,990.813"/>
					<path style="clip-path:url(#XMLID_00000160149471600263403140000016864204414357504702_);fill:#19283F;" d="M1740.219,1206.321
						c0,0,30.897,59.2,29.455,93.644s-40.366,68.363-78.61,69.061c-68.293,1.246-115.059-27.761-111.259-94.295
						C1583.605,1208.198,1740.219,1206.321,1740.219,1206.321"/>
				</g>
				<g>
					<defs>
						<path id="XMLID_21_" d="M1740.219,1206.321c0,0-50.467-109.947-140.588-106.342c-90.12,3.605-126.168,43.258-405.541,18.024
							c0,0-19.827,46.773,16.222,71.15c36.048,24.377,116.79,71.407,369.493,85.578c0,0-0.068,69.557,102.737,61.363
							C1802.339,1326.546,1740.219,1206.321,1740.219,1206.321z"/>
					</defs>
					<use xlink:href="#XMLID_21_"  style="overflow:visible;fill:#F9724D;"/>
					<clipPath id="XMLID_00000134213550740245421690000000664924242555652242_">
						<use xlink:href="#XMLID_21_"  style="overflow:visible;"/>
					</clipPath>
					<path style="clip-path:url(#XMLID_00000134213550740245421690000000664924242555652242_);fill:#EF92C8;" d="M1567.156,1227.508
						l81.325-8.738c0,0-35.185,93.228,9.245,133.636c0,0-64.354,3.304-77.921-10.746
						C1566.238,1327.61,1527.667,1274.345,1567.156,1227.508z"/>
				</g>
				<path style="fill:#EF92C8;" d="M2028.229,1278.172c0,0-52.08-83.38-43.049-140.597c0,0-40.47,42.595-11.041,162.391
					C1974.139,1299.965,2003.605,1289.51,2028.229,1278.172z"/>
				<g>
					<defs>
						<path id="XMLID_15_" d="M2157.562,1053.18l32.607,198.938l-165.909,70.184c0,0-47.49-117.408-39.08-184.727
							C1993.589,1070.256,2157.562,1053.18,2157.562,1053.18z"/>
					</defs>
					<use xlink:href="#XMLID_15_"  style="overflow:visible;fill:#EF92C8;"/>
					<clipPath id="XMLID_00000132809305169350506310000004631339822649091460_">
						<use xlink:href="#XMLID_15_"  style="overflow:visible;"/>
					</clipPath>
					<path style="clip-path:url(#XMLID_00000132809305169350506310000004631339822649091460_);fill:#FAD674;" d="M2012.814,1306.821
						c0,0,2.474-44.983,78.351-72.83c75.877-27.847,128.893,14.994,128.893,14.994l-9.104,23.027c0,0-172.971,62.926-178.326,74.84
						l-21.421-19.146L2012.814,1306.821z"/>
				</g>
				<path style="fill:#19283F;" d="M1843.541,925.611l-2.346-2.104c35.795-39.889,70.858-55.664,93.971-61.875
					c25.146-6.758,41.599-4.059,42.286-3.941l-0.532,3.105c-0.163-0.027-16.595-2.699-41.128,3.93
					C1913.14,870.847,1878.747,886.378,1843.541,925.611z"/>
				<g>
					<defs>
						<path id="XMLID_20_" d="M1675.556,971.23l-99.935-220.802l-76.395-351.31l-41.408,21.364c0,0-72.178,296.174-1.829,370.979
							c0,0-40.133,255.699,103.937,261.447S1675.556,971.23,1675.556,971.23z"/>
					</defs>
					<use xlink:href="#XMLID_20_"  style="overflow:visible;fill:#F9724D;"/>
					<clipPath id="XMLID_00000181057830913957451480000005184986118419096987_">
						<use xlink:href="#XMLID_20_"  style="overflow:visible;"/>
					</clipPath>
					<path style="clip-path:url(#XMLID_00000181057830913957451480000005184986118419096987_);fill:#EF92C8;" d="M1521.982,734.972
						c0,0-40.348,207.033-13.545,301.372s0,0,0,0l-64.743-42.978l-37.145-239.188L1521.982,734.972z"/>
				</g>
				<path style="fill:#19283F;" d="M1590.065,1277.173c-6.221,0-10.465-0.874-10.595-0.901l0.667-3.08
					c1.548,0.334,38.151,7.8,52.742-25.187l2.881,1.275C1625.148,1273.275,1603.201,1277.173,1590.065,1277.173z"/>
				<path style="fill:#19283F;" d="M1752.635,929.703c0,0-45.691-96.408,49.928-103.604c95.619-7.196,52.88,103.604,52.88,103.604
					H1752.635z"/>
				<path style="fill:#19283F;" d="M2024.26,1322.302c0,0,61.894,70.28,165.909-70.184
					C2190.169,1252.118,2059.491,1210.318,2024.26,1322.302z"/>
				<path style="fill:#19283F;" d="M1990.64,1124.564l-2.449-1.982c41.514-51.32,85.426-67.881,114.953-72.736
					c16.743-2.754,30.744-2.116,39.544-1.098c9.574,1.108,15.122,2.857,15.354,2.931l-0.958,3.002
					c-0.219-0.068-22.236-6.892-53.602-1.697C2074.541,1057.777,2031.471,1074.087,1990.64,1124.564z"/>
				<path style="fill:#19283F;" d="M1733.703,1098.586c-50.193-24.956-128.839-8.228-142.243-3.901l-0.969-2.998
					c13.606-4.393,93.47-21.349,144.614,4.077L1733.703,1098.586z"/>
				<g>
					<defs>
						<path id="XMLID_17_" d="M1194.09,1118.004c0,0,136.936,6.679,231.101,0s171.665-20.829,171.665-20.829
							s29.811,95.457-45.343,175.787c0,0-215.736-1.038-348.175-76.333c-15.192-8.637-25.309-24.309-25.955-41.773
							C1176.947,1143.063,1180.663,1129.777,1194.09,1118.004z"/>
					</defs>
					<use xlink:href="#XMLID_17_"  style="overflow:visible;fill:#FAD674;"/>
					<clipPath id="XMLID_00000067951562729427320710000000999667639367405220_">
						<use xlink:href="#XMLID_17_"  style="overflow:visible;"/>
					</clipPath>
					<path style="clip-path:url(#XMLID_00000067951562729427320710000000999667639367405220_);fill:#EF92C8;" d="M1453.55,1106.585
						c0,0,17.339,77.298-44.45,166.376l63.385,9.163c0,0,84.086-105.424,46.189-180.411L1453.55,1106.585z"/>
					<path style="clip-path:url(#XMLID_00000067951562729427320710000000999667639367405220_);fill:#EF92C8;" d="M1177.383,1154.856
						c0,0,194.297,80.916,413.592,98.306l-53.146,40.576c0,0-251.107-33.882-355.222-87.429
						C1182.607,1206.309,1150.823,1179.438,1177.383,1154.856"/>
				</g>
				<g>
					<defs>
						<path id="XMLID_18_" d="M1453.55,407.02c0,0-67.897,238.624-12.775,360.345c0,0,63.031,15.249,130.922-69.886l-71.196-315.784
							L1453.55,407.02z"/>
					</defs>
					<use xlink:href="#XMLID_18_"  style="overflow:visible;fill:#FAD674;"/>
					<clipPath id="XMLID_00000165218631633641754770000009768701837169565603_">
						<use xlink:href="#XMLID_18_"  style="overflow:visible;"/>
					</clipPath>
					<path style="clip-path:url(#XMLID_00000165218631633641754770000009768701837169565603_);fill:#EF92C8;" d="M1408.986,629.824
						c0,0,103.201-18.351,147.437-67.73l8.23,58.638c0,0-50.64,79.427-155.454,76.748L1408.986,629.824z"/>
					<path style="clip-path:url(#XMLID_00000165218631633641754770000009768701837169565603_);fill:#EF92C8;" d="M1468.183,410.803
						c0,0-56.809,185.401,4.302,368.555l-63.287-1.189c0,0-40.029-309.909,44.352-371.148c84.381-61.239,0,0,0,0L1468.183,410.803z"
						/>
				</g>
				<g>
					<g>
						<defs>
							<path id="XMLID_23_" d="M1846.174,855.071l244.992,234.668l-51.025,9.948c0,0-337.622-112.647-293.02-223.997
								C1763.136,835.708,1815.069,825.278,1846.174,855.071z"/>
						</defs>
						<use xlink:href="#XMLID_23_"  style="overflow:visible;fill:#F9724D;"/>
						<clipPath id="XMLID_00000009570430570260048910000016830666404981647254_">
							<use xlink:href="#XMLID_23_"  style="overflow:visible;"/>
						</clipPath>
						<path style="clip-path:url(#XMLID_00000009570430570260048910000016830666404981647254_);fill:#EF92C8;" d="M1847.949,848.391
							c0,0-53.216,31.676-35.477,86.793c17.739,55.117,63.497,93.761,63.497,93.761s-123.97-39.811-141.565-60.134
							c-17.594-20.323-26.858-97.955-7.316-112.137C1746.631,842.491,1814.392,807.867,1847.949,848.391z"/>
					</g>
					<path style="fill:#F9724D;" d="M2150.172,1119.162l-17.628-9.781l0,0c0,0-20.097-25.222-31.567-32.104
						c-11.469-6.881-38.505-15.022-38.505-15.022s-0.743,4.784,0.316,10.431h-1.691l-32.869,20.387l17.969,26.506l8.624,37.659
						c1.237,5.403,6.045,9.234,11.587,9.234l-5.312-47.274l53.6,19.67c6.5,2.385,13.646,2.327,20.106-0.163l2.929-1.129
						l-58.612-32.914l52.931,17.079C2138.167,1123.714,2144.85,1122.763,2150.172,1119.162z"/>
					
						<rect x="2106.655" y="1071.076" transform="matrix(0.4256 -0.9049 0.9049 0.4256 217.3839 2538.3677)" style="fill:#19283F;" width="3.151" height="53.737"/>
				</g>
				<g>
					<path style="fill:#F9724D;" d="M2366.862,1668.436l58.981,30.317l-0.291,0.194c-4.996,3.335-11.191,4.342-16.986,2.761
						l-31.98-8.728l49.257,23.451l-5.628,2.747c-3.841,1.875-8.257,2.195-12.329,0.895l-41.023-13.098l33.175,18.534l-5.369,2.036
						c-3.603,1.367-7.587,1.339-11.17-0.079l-40.332-15.953l8.077,38.581l0,0c-3.272-1.128-5.997-3.453-7.626-6.506l-31.239-58.533
						L2366.862,1668.436z"/>
					<g>
						<defs>
							<path id="XMLID_22_" d="M2165.814,1266.698l10.867,123.159l173.652,271.051l-39.882,11.357
								c0,0-205.564-124.623-241.35-264.491l-26.053-89.665c0,0,15.416-43.784,61.376-51.412
								C2150.385,1259.07,2165.814,1266.698,2165.814,1266.698z"/>
						</defs>
						<use xlink:href="#XMLID_22_"  style="overflow:visible;fill:#F9724D;"/>
						<clipPath id="XMLID_00000119838098147213551680000017548805682803126437_">
							<use xlink:href="#XMLID_22_"  style="overflow:visible;"/>
						</clipPath>
						<path style="clip-path:url(#XMLID_00000119838098147213551680000017548805682803126437_);fill:#EF92C8;" d="
							M2176.682,1284.712c0,0-119.594,22.996-133.632,99.129l-14.821-78.857c0,0,37.28-60.504,109.339-60.503
							C2209.626,1244.482,2176.682,1284.712,2176.682,1284.712z"/>
					</g>
					<path style="fill:#19283F;" d="M2126.791,1399.563l-2.322-2.129c20.153-21.986,52.482-9.167,52.807-9.035l-1.188,2.918
						C2175.785,1391.193,2145.451,1379.207,2126.791,1399.563z"/>
					<path style="fill:#F9724D;" d="M2371.291,1670.404c2.255-2.715,3.821-5.325,3.914-7.276
						c0.341-7.167-33.399-15.531-33.399-15.531s-0.794,2.595-1.902,6.62l-40.049,11.32c0,0,9.965,28.411,28.445,35.519
						c18.48,7.108,60.418-13.505,63.971-14.216C2393.987,1686.497,2383.058,1678.542,2371.291,1670.404z"/>
					<path style="fill:#19283F;" d="M2359.163,1687.683l-1.169-0.711c-3.402-2.068-11.096-7.315-9.067-11.346
						c1.542-3.064,5.523-13.29,5.563-13.394l2.937,1.143c-0.165,0.426-4.075,10.47-5.685,13.667
						c-0.258,0.846,2.719,3.862,6.736,6.508l11.595-14.145l2.438,1.998L2359.163,1687.683z"/>
				</g>
			</g>
			<path style="fill:#6C50B7;" d="M1570.2,240.318L1570.2,240.318c2.926,10.884,2.172,22.43-2.146,32.84l-59.617,143.73
				c0,0-27.047-11.687-60.411,11.411l-38.828-21.38L1570.2,240.318z"/>
			<g>
				<defs>
					<path id="XMLID_19_" d="M1896.698,348.863c0,89.632-72.661,162.294-162.294,162.294c-89.632,0-127.342-72.661-127.342-162.294
						c0-89.632,37.71-162.294,127.342-162.294C1824.037,186.569,1896.698,259.23,1896.698,348.863z"/>
				</defs>
				<use xlink:href="#XMLID_19_"  style="overflow:visible;fill:#FAD674;"/>
				<clipPath id="XMLID_00000158730242185187216640000011166519796008895896_">
					<use xlink:href="#XMLID_19_"  style="overflow:visible;"/>
				</clipPath>
				<path style="clip-path:url(#XMLID_00000158730242185187216640000011166519796008895896_);fill:#6C50B7;" d="M1617.843,224.586
					c0,0,130.348,248.964,271.124,251.571c0,0-66.477,101.671-177.273,71.691c-110.796-29.98-129.044-70.748-129.044-137.046
					S1617.843,224.586,1617.843,224.586z"/>
				<path style="clip-path:url(#XMLID_00000158730242185187216640000011166519796008895896_);fill:#19283F;" d="M1798.152,339.527
					c0,25.555-35.578,53.073-61.133,53.073c-25.555,0-38.163-29.277-38.163-54.832c0-25.555,27.469-44.513,53.024-44.513
					C1777.436,293.256,1798.152,313.972,1798.152,339.527z"/>
				<path style="clip-path:url(#XMLID_00000158730242185187216640000011166519796008895896_);fill:#19283F;" d="M1813.032,186.569
					c0,25.555-35.596,39.604-61.151,39.604c-25.555,0-61.156-18.152-61.156-43.708s35.601-39.087,61.156-39.087
					C1777.436,143.379,1813.032,161.014,1813.032,186.569z"/>
				<path style="clip-path:url(#XMLID_00000158730242185187216640000011166519796008895896_);fill:#19283F;" d="M1949.512,335.423
					c0,25.555-7.013,57.407-32.568,57.407c-25.555,0-59.975-31.852-59.975-57.407c0-25.555,35.243-68.859,60.798-68.859
					C1943.322,266.565,1949.512,309.868,1949.512,335.423z"/>
				
					<ellipse transform="matrix(0.7071 -0.7071 0.7071 0.7071 137.7653 1382.7109)" style="clip-path:url(#XMLID_00000158730242185187216640000011166519796008895896_);fill:#19283F;" cx="1737.962" cy="525.058" rx="46.272" ry="46.272"/>
				
					<ellipse transform="matrix(0.2298 -0.9732 0.9732 0.2298 877.9984 1815.0917)" style="clip-path:url(#XMLID_00000158730242185187216640000011166519796008895896_);fill:#19283F;" cx="1585.733" cy="352.846" rx="46.272" ry="46.272"/>
				<path style="clip-path:url(#XMLID_00000158730242185187216640000011166519796008895896_);fill:#19283F;" d="M1823.638,321.79
					c-35.718,0-64.776-25.709-64.776-57.31c0-31.601,29.059-57.31,64.776-57.31s64.775,25.709,64.775,57.31
					C1888.413,296.082,1859.355,321.79,1823.638,321.79z M1823.638,209.87c-34.229,0-62.077,24.499-62.077,54.611
					s27.848,54.611,62.077,54.611c34.229,0,62.076-24.499,62.076-54.611S1857.866,209.87,1823.638,209.87z"/>
				<path style="clip-path:url(#XMLID_00000158730242185187216640000011166519796008895896_);fill:#19283F;" d="M1824.896,517.401
					c-22.947,0-44.462-9.361-60.582-26.359c-15.448-16.289-24.308-38.271-24.308-60.311c0-21.838,8.67-41.684,24.412-55.882
					c15.535-14.01,37.013-21.726,60.478-21.726c48.195,0,87.405,36.847,87.405,82.139S1873.091,517.401,1824.896,517.401z
					 M1824.896,356.877c-47.014,0-81.136,31.06-81.136,73.854c0,21.088,8.484,42.129,23.277,57.728
					c15.404,16.243,35.952,25.188,57.858,25.188c46.126,0,83.651-35.163,83.651-78.385S1871.021,356.877,1824.896,356.877z"/>
				<path style="clip-path:url(#XMLID_00000158730242185187216640000011166519796008895896_);fill:#19283F;" d="M1654.569,510.231
					c-8.183,0-16.313-1.192-24.151-3.596c-20.058-6.151-35.792-19.493-44.304-37.568c-8.513-18.075-8.775-38.702-0.741-58.082
					c8.01-19.322,23.317-35.095,43.104-44.414c19.966-9.403,40.076-11.25,58.159-5.34c17.691,5.782,32.148,18.975,40.707,37.148
					c8.76,18.602,10.309,39.323,4.36,58.346c-6.225,19.907-20.285,35.878-39.593,44.97
					C1680.081,507.361,1667.263,510.231,1654.569,510.231z M1665.104,361.313c-11.418,0-23.298,2.813-35.149,8.395
					c-19.004,8.95-33.7,24.081-41.379,42.605c-7.655,18.467-7.415,38.098,0.676,55.278c8.091,17.181,23.071,29.87,42.184,35.731
					c19.172,5.879,40.194,4.188,59.2-4.762l0,0c18.419-8.674,31.829-23.898,37.761-42.868c5.688-18.192,4.2-38.021-4.188-55.834
					c-8.147-17.301-21.873-29.848-38.647-35.33C1678.993,362.38,1672.136,361.313,1665.104,361.313z"/>
				<path style="clip-path:url(#XMLID_00000158730242185187216640000011166519796008895896_);fill:#19283F;" d="M1656.743,333.067
					c-8.311,0-16.501-1.355-24.302-4.083c-18.531-6.48-33.48-20.122-42.094-38.411c-8.703-18.48-10.126-36.509-4.115-52.137
					c6.091-15.837,19.841-29.168,39.765-38.55c20.143-9.486,40.048-11.776,57.566-6.622c17.702,5.208,31.608,17.621,40.215,35.897
					c18.926,40.188,6.473,77.779-31.726,95.769C1680.573,330.336,1668.539,333.067,1656.743,333.067z M1664.488,194.047
					c-11.823,0-24.354,3.015-37.015,8.977c-19.1,8.994-32.241,21.67-38.006,36.658c-5.663,14.724-4.273,31.811,4.017,49.415
					c8.214,17.441,22.455,30.445,40.102,36.616c18.009,6.298,38.249,4.907,56.99-3.918c18.589-8.754,31.037-22.264,35.998-39.068
					c4.688-15.878,2.637-33.89-5.933-52.087c-8.173-17.354-21.332-29.128-38.057-34.048
					C1676.808,194.892,1670.747,194.047,1664.488,194.047z"/>
			</g>
			<path style="fill:#19283F;" d="M1570.771,241.691c0.502,3.013-0.056,6.104-1.382,8.856c-3.088,6.407-10.816,21.328-22.215,35.837
				c-15.069,19.178-65.069,47.946-79.453,69.179c-14.384,21.233-11.566,69.151-58.523,51.356c0,0-5.536-12.914,39.941-62.32
				C1449.139,344.598,1564.894,206.394,1570.771,241.691z"/>
			<path style="fill:#19283F;" d="M1511.849,833.118c-15.639-27.175-36.727-77.824-48.375-164.792
				c-6.959-51.957-7.239-92.851-7.241-93.257l3.15-0.016c0.008,1.62,1.431,163.069,55.196,256.494L1511.849,833.118z"/>
			<path style="fill:#19283F;" d="M1468.638,1207.819c-34.131,0-62.054-1.549-79.309-2.83c-1.598-0.119-2.859-0.213-3.091-0.213
				v-3.15c0.329,0,1.111,0.057,3.324,0.221c44.235,3.286,158.881,8.337,267.826-15.644l0.678,3.076
				C1591.235,1203.99,1522.279,1207.819,1468.638,1207.819z"/>
		</g>
		<g>
			
				<rect x="1538.492" y="413.367" transform="matrix(0.9755 -0.2199 0.2199 0.9755 -84.8356 352.3631)" style="fill:#19283F;" width="3.151" height="287.634"/>
			<path style="fill:#19283F;" d="M1308.938,1123.111c-67.301,0-114.18-3.477-114.967-3.536l0.239-3.143
				c1.332,0.103,134.751,9.993,275.59-3.797l0.307,3.137C1412.268,1121.435,1355.677,1123.111,1308.938,1123.111z"/>
			<path style="fill:#19283F;" d="M1766.301,1348.417l-0.379-3.128c1.668-0.202,167.649-20.655,244.43-60.824l1.461,2.791
				C1934.521,1327.692,1767.974,1348.214,1766.301,1348.417z"/>
		</g>
	</g>
	<g>
		<path style="fill:#19283F;" d="M1410.11,1708.414c-18.752,0-37.385-0.293-55.926-0.881
			c-160.921-5.099-312.569-32.439-450.731-81.263c-149.621-52.872-284.275-131.34-400.223-233.223l1.32-1.502
			c115.755,101.714,250.19,180.052,399.569,232.839c137.969,48.755,289.414,76.058,450.128,81.149
			c148.905,4.72,304.904-9.56,463.669-42.438c148.804-30.814,296.886-77.211,440.132-137.901
			c133.587-56.597,248.988-121.255,352.798-197.668l1.186,1.611c-103.938,76.506-219.471,141.239-353.203,197.898
			c-143.366,60.741-291.574,107.178-440.506,138.018C1679.171,1693.87,1542.116,1708.414,1410.11,1708.414z"/>
		<path style="fill:#19283F;" d="M1754.158,1839.414c-35.092-6.568-70.509-14.744-105.27-24.302
			c-79.462-21.849-158.396-52.286-234.606-90.468c-74.406-37.278-146.875-82.258-215.392-133.691
			c-67.52-50.684-131.655-107.968-190.627-170.263c-58.731-62.04-112.667-129.394-160.313-200.19
			c-47.973-71.285-89.843-146.474-124.445-223.478c-35.203-78.339-63.135-159.129-83.021-240.124
			c-41.851-170.454-48.419-339.895-19.522-503.617l1.97,0.348c-28.848,163.446-22.289,332.61,19.495,502.792
			c19.857,80.878,47.75,161.553,82.903,239.782c34.556,76.901,76.37,151.99,124.28,223.181
			c47.583,70.706,101.451,137.973,160.105,199.933c58.895,62.213,122.947,119.423,190.376,170.039
			c68.422,51.361,140.788,96.277,215.087,133.502c76.094,38.123,154.905,68.514,234.241,90.328
			c34.707,9.542,70.07,17.706,105.106,24.264L1754.158,1839.414z"/>
	</g>
</g>
</svg>
