<?xml version="1.0" encoding="utf-8"?>
<!-- Generator: Adobe Illustrator 27.5.0, SVG Export Plug-In . SVG Version: 6.00 Build 0)  -->
<svg version="1.1" xmlns="http://www.w3.org/2000/svg" xmlns:xlink="http://www.w3.org/1999/xlink" x="0px" y="0px"
	 viewBox="0 0 750 500" style="enable-background:new 0 0 750 500;" xml:space="preserve">
<g id="BACKGROUND">
	<rect style="fill:#F4F0DE;" width="750.009" height="500.006"/>
</g>
<g id="OBJECTS">
	<g>
		<g style="opacity:0.5;">
			<ellipse style="fill:#D9C4A0;" cx="130.815" cy="439.845" rx="79.347" ry="7.245"/>
		</g>
		<g>
			<g>
				<path style="fill:#A05544;" d="M168.466,173.423c0,0,24.048,26.652,28.123,30.442c0,0,39.647,7.938,45.821,9.111l-1.536,6.253
					c0,0-33.904,5.03-50.813,2.541c-13.997-2.06-36.591-30.167-36.591-30.167L168.466,173.423z"/>
				<g>
					<path style="fill:#742823;" d="M196.049,203.771c-2.48,1.161-4.263,3.36-4.903,6.021c-0.115,0.478,0.622,0.682,0.737,0.203
						c0.598-2.486,2.238-4.48,4.552-5.564C196.88,204.223,196.492,203.563,196.049,203.771L196.049,203.771z"/>
				</g>
				<g>
					<path style="fill:#742823;" d="M261.545,220.495c0,0,3.549,3.897,2.501,4.978c-1.047,1.081-3.492-2.199-5.305-3.279
						c-1.813-1.079-6.27-4.213-6.27-4.213L261.545,220.495z"/>
					<path style="fill:#A05544;" d="M237.935,218.783c0,0,2.526,3.023,5.254,5.576c2.728,2.553,3.687,6.541,5.076,3.934
						c1.389-2.607-1.494-6.781-1.084-7.963c0.738-2.132,4.37-1.298,10.376,0.691c7.885,2.612,10.079,1.513,9.809,1.019
						c-1.033-1.894-6.286-3.056-12.026-6.163c-5.739-3.107-12.387-3.902-16.153-3.617
						C239.186,212.261,237.811,216.045,237.935,218.783z"/>
				</g>
				<g>
					<path style="fill:#46495D;" d="M137.383,157.514c0,0,1.373,25.699,16.996,40.427l21.835-21.269c0,0-4.861-13.98-13.981-22.578
						C147.882,140.564,137.383,157.514,137.383,157.514z"/>
				</g>
				<g>
					<path style="fill:#D99A26;" d="M173.822,172.732c-6.158,5.82-12.316,11.639-18.474,17.458
						c-0.358,0.339,0.183,0.879,0.541,0.541c6.158-5.819,12.316-11.639,18.474-17.458
						C174.721,172.934,174.18,172.394,173.822,172.732L173.822,172.732z"/>
				</g>
				<g>
					<path style="fill:#2C2F3F;" d="M162.919,155.351c-0.294,1.676-1.676,10.419-3.081,21.349
						c-0.758,5.88-1.519,12.392-2.126,18.773c0,0,0,0.008,0,0.018c-0.037,0.382-0.072,0.763-0.108,1.145
						c-1.519,16.475-1.918,31.788,1.658,32.761l-70.305,8.199c0,0-1.012-7.573-1.484-19.055c-0.188-4.586-0.288-9.795-0.204-15.395
						c0.08-5.561,0.346-11.504,0.895-17.605v-0.012c0.785-8.794-1.495-19.325,0.482-27.353c1.699-6.901,14.615-10.982,22.443-15.094
						c6.117-3.214,11.37-5.312,11.37-5.312s8.859,2.537,18.288,5.831C151.717,147.431,163.461,152.284,162.919,155.351z"/>
				</g>
				<g>
					<path style="fill:#2C2F3F;" d="M95.543,260.595c-7.089-4.224-8.429-23.969-8.069-42.054c0.108-5.416,0.368-10.684,0.672-15.34
						c0.643-9.863,1.483-16.986,1.483-16.986l68.084,9.26c0,0,0,0.006,0,0.016c-0.002,0.084-0.01,0.464-0.008,1.097
						c0.012,5.226,0.623,27.701,9.91,42.691C181.529,261.745,105.741,266.669,95.543,260.595z"/>
				</g>
				<g>
					<path style="fill:#46495D;" d="M111.06,186.417c2.078-1.254,3.745-1.971,6.179-5.867h6.877l2.515,25.349h3.593l0.591,5.957
						h-15.454l-0.591-5.957h3.863l-1.648-16.616l-3.655,2.105L111.06,186.417z"/>
					<path style="fill:#46495D;" d="M130.792,196.046c-0.942-9.495,2.887-16.078,9.3-16.078c7.573,0,11.733,6.494,12.714,16.392
						c0.986,9.943-2.312,16.034-9.305,16.034C137.05,212.394,131.885,207.064,130.792,196.046z M145.041,196.36
						c-0.529-5.33-2.379-9.181-4.272-9.181c-1.434-0.045-2.869,3.404-2.327,8.868c0.573,5.778,2.826,9.405,4.371,9.405
						C144.59,205.452,145.583,201.824,145.041,196.36z"/>
				</g>
				<g>
					<g>
						<g>
							<path style="fill:#46495D;" d="M95.746,180.826c-2.723,10.552-3.933,21.488-4.193,32.368
								c-0.253,10.626,0.39,21.337,2.302,31.802c0.916,5.018,2.137,10.002,3.922,14.786c0.137,0.366,0.729,0.208,0.591-0.163
								c-3.323-8.904-4.841-18.48-5.648-27.913c-0.936-10.946-0.813-22.016,0.411-32.935c0.672-5.99,1.699-11.944,3.206-17.782
								C96.436,180.607,95.845,180.444,95.746,180.826L95.746,180.826z"/>
						</g>
					</g>
				</g>
				<g>
					<g>
						<g>
							<path style="fill:#46495D;" d="M156.669,217.659c-11.792,10.635-26.741,17.588-42.443,19.906
								c-4.517,0.667-9.087,0.931-13.651,0.813c-0.394-0.01-0.394,0.603,0,0.613c16.088,0.417,32.199-4.105,45.781-12.725
								c3.806-2.415,7.399-5.154,10.747-8.173C157.396,217.828,156.962,217.395,156.669,217.659L156.669,217.659z"/>
						</g>
					</g>
				</g>
			</g>
			<g>
				<g>
					<path style="fill:#2C2F3F;" d="M123.921,109.991c0,0-3.233-1.454-2.421-3.754c0.812-2.3,4.223-1.029,4.223-1.029
						s-2.365-7.089,1.712-7.901c4.077-0.812,5.631,2.402,7.154,1.996c1.523-0.406,5.15-6.149,9.628-4.931
						c4.478,1.218,0.869,7.533,3.485,7.569c2.616,0.036,6.54-1.352,8.975,0.795c2.435,2.147,2.706,6.679-0.406,7.255
						c-3.112,0.575,2.435,2.461,1.218,5.442c-1.218,2.981-7.577,0.212-7.577,0.212L123.921,109.991z"/>
				</g>
				<g>
					<g>
						<g>
							<path style="fill:#A05544;" d="M118.32,140.897c0,0,6.704,12.93,18.552,7.839l0.425-7.992l0.28-5.274l0.197-3.692
								l-12.778-7.016C123.49,131.223,121.202,136.507,118.32,140.897z"/>
						</g>
					</g>
					<g>
						<g>
							<path style="fill:#2C2F3F;" d="M126.461,130.891c3.587,9.298,8.707,11.984,10.729,11.864l0.387-7.285L126.461,130.891z"/>
						</g>
					</g>
				</g>
				<g>
					<g>
						<g>
							<path style="fill:#A05544;" d="M124.794,120.534c-0.142,0.564-0.244,1.093-0.307,1.604c-0.146,1.181-0.09,2.258,0.146,3.413
								c0.312,1.52,0.933,3.178,1.813,5.379c1.383,3.457,4.645,5.505,8.082,6.441c9.127,2.486,11.632-3.517,13.413-13.123
								c1.105-5.965,3.624-8.759,2.778-11.42l-0.003-0.001c-0.069-0.131-0.142-0.26-0.216-0.387
								c-1.744-3.041-4.657-5.244-8.025-6.227c-0.649-0.189-1.275-0.349-1.881-0.482c-0.136-0.034-0.274-0.063-0.41-0.089
								c-0.056-0.014-0.113-0.025-0.168-0.034c-0.154-0.033-0.305-0.063-0.459-0.087c-0.108-0.022-0.217-0.04-0.324-0.056
								c-0.248-0.043-0.49-0.078-0.726-0.109c-7.572-0.971-10.586,2.987-12.025,7.306
								C125.503,115.598,125.255,118.701,124.794,120.534z"/>
						</g>
					</g>
					<g>
						<g>
							<path style="fill:#2C2F3F;" d="M140.334,120.918c-0.181,0.48-0.619,0.759-0.979,0.623c-0.36-0.136-0.505-0.634-0.324-1.114
								c0.181-0.48,0.619-0.759,0.979-0.623C140.369,119.939,140.514,120.438,140.334,120.918z"/>
						</g>
					</g>
					<g>
						<g>
							<path style="fill:#2C2F3F;" d="M146.268,122.65c-0.181,0.48-0.619,0.759-0.979,0.623c-0.36-0.136-0.505-0.634-0.324-1.114
								c0.181-0.48,0.619-0.759,0.979-0.623C146.303,121.671,146.448,122.17,146.268,122.65z"/>
						</g>
					</g>
					<g>
						<g>
							<path style="fill:#742823;" d="M134.604,122.277c-0.126,0.503,0.554,1.108,1.519,1.351c0.966,0.243,1.851,0.032,1.977-0.471
								c0.127-0.503-0.554-1.108-1.519-1.351C135.616,121.563,134.73,121.774,134.604,122.277z"/>
						</g>
					</g>
					<g>
						<g>
							<path style="fill:#742823;" d="M147.46,126.654c-0.375,0.133-0.907,0.144-1.464,0.004c-0.964-0.242-1.645-0.846-1.518-1.351
								c0.126-0.502,1.012-0.712,1.976-0.47c0.531,0.134,0.976,0.377,1.248,0.653L147.46,126.654z"/>
						</g>
					</g>
					<g>
						<g>
							<g>
								<path style="fill:#2C2F3F;" d="M140.569,118.019c-0.512-0.359-1.341-0.53-1.764,0.069c-0.257,0.363-0.712,0.55-1.128,0.312
									c-0.358-0.205-0.573-0.76-0.312-1.128c0.923-1.304,2.694-1.624,4.02-0.693c0.364,0.256,0.549,0.714,0.312,1.128
									C141.492,118.066,140.938,118.278,140.569,118.019L140.569,118.019z"/>
							</g>
						</g>
					</g>
					<g>
						<g>
							<g>
								<path style="fill:#2C2F3F;" d="M147.133,120.376c-0.323-0.663-0.776-1.029-1.536-1.024
									c-1.066,0.007-1.103-1.648-0.038-1.655c1.31-0.009,2.416,0.646,2.993,1.83C149.017,120.478,147.6,121.335,147.133,120.376
									L147.133,120.376z"/>
							</g>
						</g>
					</g>
					<g>
						<g>
							<path style="fill:#2C2F3F;" d="M141.201,124.966c-0.14-0.062-0.215-0.22-0.168-0.37c0.05-0.162,0.221-0.253,0.383-0.202
								c0.561,0.173,1.022,0.154,1.314,0.106c-0.557-1.168-0.282-2.775-0.269-2.85c0.03-0.167,0.188-0.277,0.355-0.248
								c0.167,0.03,0.278,0.188,0.248,0.355c-0.003,0.018-0.307,1.804,0.381,2.756c0.054,0.075,0.071,0.17,0.047,0.259
								c-0.024,0.089-0.087,0.163-0.171,0.2c-0.035,0.016-0.877,0.38-2.086,0.008C141.224,124.975,141.212,124.971,141.201,124.966z
								"/>
						</g>
					</g>
				</g>
				<g>
					<g>
						<path style="fill:#2C2F3F;" d="M127.435,123.942c-1.299-0.307-2.268-0.957-2.948-1.805c-0.146,1.181-0.09,2.258,0.146,3.413
							C125.658,125.33,126.612,124.828,127.435,123.942z"/>
					</g>
				</g>
				<g>
					<g>
						<path style="fill:#2C2F3F;" d="M128.556,113.115c3.398,1.913,2.197,8.231,4.338,7.632c2.142-0.599,1.22-11.639,5.968-10.16
							c4.748,1.478,3.922,2.24,6.084,2.952c3.678,1.209,4.148-0.663,5.771-0.713c-0.069-0.131-0.142-0.26-0.216-0.387
							c-1.744-3.041-4.657-5.244-8.025-6.227c-0.649-0.189-1.275-0.349-1.881-0.482c-0.136-0.034-0.274-0.063-0.41-0.089
							c-0.056-0.014-0.113-0.025-0.168-0.034c-0.154-0.033-0.305-0.063-0.459-0.087c-0.108-0.022-0.217-0.04-0.324-0.056
							c-0.245-0.044-0.489-0.08-0.726-0.109c-7.572-0.971-10.586,2.987-12.025,7.306
							C127.113,112.567,127.812,112.695,128.556,113.115z"/>
					</g>
				</g>
				<g>
					<g>
						<path style="fill:#742823;" d="M132.893,120.747c-2.141,0.598-0.937-5.719-4.337-7.632c-0.745-0.421-1.444-0.549-2.073-0.453
							c-0.979,2.936-1.228,6.039-1.689,7.871c-0.138,0.549-0.239,1.066-0.301,1.564c-0.449-4.151-0.894-9.026-0.743-11
							c0.029-0.399,0.088-0.766,0.171-1.107c0.11-0.072,0.219-0.141,0.332-0.205c0.486-0.286,1.001-0.503,1.537-0.664
							c0.846-0.251,1.747-0.357,2.663-0.354c2.974,0.002,6.136,1.134,8.326,2.122C134.349,112.791,134.645,120.256,132.893,120.747z
							"/>
					</g>
				</g>
				<g>
					<g>
						<path style="fill:#2C2F3F;" d="M131.602,118.513c0,0-1.238,5.777-4.333,7.586c-3.094,1.809-2.717,5.845-1.166,7.899
							c1.372,1.818,5.9,9.285,13.446,6.433c5.554-2.099,7.484-11.973,7.484-11.973s-5.484-2.711-10.296-3.055
							c-2.594-0.186-2.474,0.603-3.691,0.518c-1.267-0.089-0.171-1.457,0.52-3.041c0.691-1.584,0.303-3.229,0.303-3.229
							L131.602,118.513z"/>
					</g>
				</g>
				<g>
					<g>
						<path style="fill:#F4F0DE;" d="M144.217,128.634c0,0-2.089-0.774-6.201-2.27c0,0-0.867,4.614,2.214,5.37
							C142.843,132.374,144.217,128.634,144.217,128.634z"/>
					</g>
				</g>
				<g>
					<g>
						<g>
							<path style="fill:#46495D;" d="M140.341,133.445c-0.752,0.056-1.489-0.128-1.915-0.793c-0.216-0.337,0.317-0.655,0.533-0.319
								c0.304,0.475,0.849,0.53,1.368,0.491C140.726,132.795,140.738,133.416,140.341,133.445L140.341,133.445z"/>
						</g>
					</g>
				</g>
				<g>
					<g>
						<g>
							<path style="fill:#A05544;" d="M130.915,122.405c0.864-1.349,0.998-3.037,0.473-4.55c-0.679-1.961-2.064-5.063-4.082-5.282
								c-2.966-0.322-3.949,2.148-4.321,4.821c-0.372,2.673,0.477,6.51,4.193,6.859
								C129.036,124.428,130.207,123.509,130.915,122.405z"/>
						</g>
					</g>
				</g>
				<g>
					<g>
						<g>
							<g>
								<path style="fill:#2C2F3F;" d="M127.617,121.086c0.415-1.054,0.772-2.175,0.629-3.324c-0.128-1.026-0.833-2.643-2.129-2.55
									c-0.435,0.031-0.558-0.641-0.12-0.672c1.249-0.089,2.178,0.867,2.626,1.968c0.647,1.588,0.236,3.289-0.367,4.82
									C128.096,121.735,127.456,121.496,127.617,121.086L127.617,121.086z"/>
							</g>
						</g>
					</g>
				</g>
			</g>
			<g>
				<g>
					<path style="fill:#46495D;" d="M113.803,149.339c4.343,3.432,8.988,6.906,14.456,8.259c4.693,1.161,9.891,0.67,13.79-2.364
						c0.298-0.232-0.12-0.645-0.415-0.415c-3.887,3.025-9.192,3.351-13.806,2.057c-5.123-1.436-9.496-4.703-13.609-7.953
						C113.925,148.692,113.507,149.105,113.803,149.339L113.803,149.339z"/>
				</g>
			</g>
			<path style="fill:#A05544;" d="M76.97,177.712c0,0-18.74,31.012-18.898,45.366C57.914,237.433,83.49,279.35,83.49,279.35
				l5.16-2.959c0,0-7.686-49.223-5.792-51.881c1.894-2.658,21.827-40.656,21.827-40.656L76.97,177.712z"/>
			<g>
				<path style="fill:#742823;" d="M82.569,224.344c-2.67-1.859-5.718-2.925-8.96-3.168c-0.491-0.037-0.488,0.728,0,0.765
					c3.109,0.233,6.017,1.284,8.574,3.064C82.588,225.286,82.971,224.623,82.569,224.344L82.569,224.344z"/>
			</g>
			<g>
				<g>
					<path style="fill:#A05544;" d="M88.66,294.219c-1.357,0.227-9.991-0.01-12.582-2.763c-2.591-2.753-0.505-6.604-0.134-7.871
						c0.371-1.267,2.925,1.78,2.925,1.78s0.14-1.562,1.042-3.594c0.874-1.967-0.723-6.59-0.213-8.846
						c0.51-2.257,8.256-2.847,8.256-2.847s3.41,11.642,4.375,15.215c0.153,0.568,0.166,1.163,0.038,1.737
						C91.959,288.86,90.826,292.965,88.66,294.219"/>
				</g>
				<g>
					<g>
						<path style="fill:#742823;" d="M89.231,289.124c-0.327,1.726-1.181,3.226-2.488,4.397c-0.334,0.299,0.106,0.842,0.442,0.541
							c1.451-1.3,2.378-2.955,2.741-4.868C90.009,288.753,89.314,288.685,89.231,289.124L89.231,289.124z"/>
					</g>
				</g>
				<g>
					<g>
						<path style="fill:#742823;" d="M86.905,287.86c-0.447,2.13-0.985,4.464-2.975,5.688c-0.378,0.232-0.093,0.871,0.29,0.635
							c2.231-1.373,2.872-3.834,3.379-6.254C87.692,287.491,86.997,287.424,86.905,287.86L86.905,287.86z"/>
					</g>
				</g>
				<g>
					<g>
						<path style="fill:#742823;" d="M83.593,287.879c-0.17,2.102-1.32,3.93-3.166,4.962c-0.389,0.218-0.103,0.855,0.29,0.635
							c2.059-1.151,3.38-3.169,3.571-5.527C84.324,287.502,83.629,287.43,83.593,287.879L83.593,287.879z"/>
					</g>
				</g>
				<g>
					<g>
						<path style="fill:#742823;" d="M78.522,285.148c-0.015,1.579,0.569,3.051,1.712,4.151c0.32,0.308,0.864-0.13,0.541-0.442
							c-1.005-0.967-1.571-2.238-1.558-3.64C79.221,284.773,78.526,284.698,78.522,285.148L78.522,285.148z"/>
					</g>
				</g>
				<g>
					<g>
						<path style="fill:#742823;" d="M78.963,287.68c-0.137,0.76-0.745,1.353-1.498,1.496c-0.44,0.084-0.326,0.773,0.117,0.689
							c1.075-0.204,1.883-1.043,2.076-2.115C79.738,287.308,79.042,287.24,78.963,287.68L78.963,287.68z"/>
					</g>
				</g>
			</g>
			<g>
				<g>
					<path style="fill:#46495D;" d="M92.084,153.518c0,0-9.663,2.627-19.711,27.599l28.04,14.13c0,0,7.126-11.181,10.419-23.274
						C116.016,152.942,92.084,153.518,92.084,153.518z"/>
				</g>
			</g>
			<g>
				<path style="fill:#D99A26;" d="M74.363,178.011c9.219,4.327,18.437,8.654,27.656,12.981c0.443,0.208,0.831-0.451,0.386-0.66
					c-9.219-4.327-18.437-8.654-27.656-12.981C74.307,177.143,73.918,177.802,74.363,178.011L74.363,178.011z"/>
			</g>
			<path style="fill:#A05544;" d="M219.021,294.339c-0.464,4.484-6.625,17.225-14.985,32.806
				c-19.216,35.812-50.049,86.621-50.049,86.621l-9.1-4.524c0,0,10.751-52.259,16.109-70.349c2.235-7.545,5.862-15.507,9.474-22.44
				c5.75-11.037,11.465-19.468,11.465-19.468c-18.999,2.656-70.846-26.954-86.391-36.39l67.392-13.111
				C162.936,247.484,220.551,279.556,219.021,294.339z"/>
			<g>
				<path style="fill:#742823;" d="M218.511,293.346c-4.475,1.758-9.368,1.694-13.797-0.174c-0.453-0.191-0.65,0.549-0.203,0.737
					c4.533,1.912,9.625,1.972,14.204,0.174C219.167,293.906,218.97,293.166,218.511,293.346L218.511,293.346z"/>
			</g>
			<path style="fill:#D9C4A0;" d="M204.036,327.146c-19.216,35.812-50.049,86.621-50.049,86.621l-9.1-4.524
				c0,0,10.751-52.259,16.109-70.349c2.235-7.545,5.862-15.507,9.474-22.44C179.674,314.84,195.781,322.662,204.036,327.146z"/>
			<g>
				<path style="fill:#2C2F3F;" d="M168.853,321.169c11.302,1.044,22.204,4.94,31.628,11.261c0.533,0.357,1.031-0.503,0.502-0.858
					c-9.575-6.422-20.652-10.337-32.13-11.397C168.216,320.116,168.22,321.111,168.853,321.169L168.853,321.169z"/>
			</g>
			<g>
				<path style="fill:#2C2F3F;" d="M167.196,325.457c11.302,1.044,22.204,4.94,31.628,11.261c0.533,0.357,1.031-0.503,0.502-0.858
					c-9.575-6.422-20.652-10.337-32.13-11.397C166.559,324.405,166.563,325.399,167.196,325.457L167.196,325.457z"/>
			</g>
			<path style="fill:#2C2F3F;" d="M146.364,407.366c0,0-1.563-1.359-2.3,0c-0.738,1.359-2.09,5.493-2.09,5.493l-5.408,10.862
				c4.206,6.017,12.176,5.916,13.764,7.164c3.687,2.898,13.88,7.607,22.6,10.281c0,0,6.287-5.608-4.928-13.594
				c-4.93-3.51-9.312-10.426-9.312-13.376c0-2.95-2.317-5.949-2.9-5.9c-0.583,0.049-1.894,3.872-3.922,2.95
				C149.84,410.324,146.364,407.366,146.364,407.366z"/>
			<g>
				<path style="fill:#D9C4A0;" d="M149.715,428.55c0.644-1.915,2.098-3.431,3.991-4.141c0.456-0.171,0.259-0.911-0.203-0.737
					c-2.158,0.809-3.79,2.489-4.525,4.675C148.82,428.814,149.559,429.014,149.715,428.55L149.715,428.55z"/>
			</g>
			<g>
				<path style="fill:#D9C4A0;" d="M152.068,429.95c0.486-2.045,1.942-3.695,3.933-4.393c0.461-0.162,0.263-0.901-0.203-0.737
					c-2.239,0.785-3.917,2.613-4.467,4.928C151.217,430.225,151.954,430.429,152.068,429.95L152.068,429.95z"/>
			</g>
			<g>
				<path style="fill:#D9C4A0;" d="M157.45,425.997c-2.001,0.93-3.299,2.81-3.544,4.991c-0.055,0.488,0.71,0.484,0.765,0
					c0.216-1.92,1.425-3.521,3.165-4.33C158.282,426.45,157.894,425.79,157.45,425.997L157.45,425.997z"/>
			</g>
			<path style="fill:#D9C4A0;" d="M136.052,423.964c0,0,3.236,5.732,13.177,6.921c0,0,14.69,9.261,23.7,10.281
				c0,0,1.098-0.555,1.425-2.273c0,0-13.485-5.119-17.479-7.243c-3.993-2.124-5.99-3.059-7.859-3.823
				c-1.869-0.765-6.716-9.029-9.752-9.527C139.265,418.299,136.817,422.265,136.052,423.964z"/>
			<path style="fill:#A05544;" d="M160.079,273.125c0,0-10.667,48.673-19.58,71.376c-0.813,2.08-1.613,3.94-2.391,5.526
				c-9.26,18.907-39.311,70.94-39.311,70.94c-3.877,1.417-6.65-1.068-9.13-4.588c0,0,11.215-41.292,13.254-56.075
				c1.236-8.969,4.254-18.54,6.436-24.683c1.415-3.981,2.478-6.52,2.478-6.52l6.487-56.615L160.079,273.125z"/>
			<g>
				<path style="fill:#742823;" d="M143.193,334.178c-3.204-0.012-6.314-0.673-9.238-1.986c-0.445-0.2-0.835,0.459-0.386,0.66
					c3.051,1.37,6.279,2.079,9.624,2.091C143.685,334.944,143.685,334.18,143.193,334.178L143.193,334.178z"/>
			</g>
			<path style="fill:#D9C4A0;" d="M140.499,344.501c-0.813,2.08-1.613,3.94-2.391,5.526c-9.26,18.907-39.311,70.94-39.311,70.94
				c-3.877,1.417-6.65-1.068-9.13-4.588c0,0,11.215-41.292,13.254-56.075c1.236-8.969,4.254-18.54,6.436-24.683
				C120.146,334.489,133.734,340.848,140.499,344.501z"/>
			<g>
				<path style="fill:#2C2F3F;" d="M108.608,339.478c10.268,1.515,20.184,4.834,29.299,9.796c0.562,0.306,1.064-0.552,0.502-0.858
					c-9.188-5.002-19.186-8.37-29.537-9.896C108.247,338.427,107.977,339.385,108.608,339.478L108.608,339.478z"/>
			</g>
			<g>
				<path style="fill:#2C2F3F;" d="M107.309,343.647c10.108,1.45,19.893,4.623,28.919,9.401c0.565,0.299,1.068-0.559,0.502-0.858
					c-9.1-4.817-18.964-8.039-29.157-9.501C106.947,342.598,106.677,343.556,107.309,343.647L107.309,343.647z"/>
			</g>
			<path style="fill:#2C2F3F;" d="M90.268,414.527c0,0-4.734,1.635-4.303,4.871c0.431,3.236-6.687,10.354-6.471,12.727
				c0.216,2.373,15.531,11.034,15.531,11.034h23.081c0,0-0.647-4.454-7.118-7.798c-6.471-3.343-8.736-3.113-9.491-6.518
				c-0.755-3.405,0.995-11.398-0.689-12.147s-2.223,3.673-4.272,3.026C94.485,419.074,90.268,414.527,90.268,414.527z"/>
			<g>
				<path style="fill:#D9C4A0;" d="M90.302,437.043c0.644-1.915,2.098-3.431,3.991-4.141c0.456-0.171,0.259-0.911-0.203-0.737
					c-2.158,0.809-3.79,2.489-4.525,4.675C89.408,437.307,90.146,437.508,90.302,437.043L90.302,437.043z"/>
			</g>
			<g>
				<path style="fill:#D9C4A0;" d="M92.655,438.443c0.486-2.046,1.942-3.695,3.933-4.394c0.461-0.162,0.263-0.901-0.203-0.737
					c-2.239,0.785-3.917,2.613-4.467,4.928C91.804,438.718,92.541,438.922,92.655,438.443L92.655,438.443z"/>
			</g>
			<g>
				<path style="fill:#D9C4A0;" d="M98.037,434.49c-2.001,0.93-3.299,2.81-3.544,4.991c-0.055,0.488,0.71,0.484,0.765,0
					c0.216-1.92,1.425-3.521,3.165-4.33C98.869,434.943,98.481,434.284,98.037,434.49L98.037,434.49z"/>
			</g>
			<path style="fill:#D9C4A0;" d="M81.615,427.827c0,0,2.278,0.425,3.553,3.229c1.274,2.804,4.503,5.947,7.647,7.307
				s23.4,1.097,23.4,1.097c1.646,1.167,2.177,2.406,1.891,3.699H93.919c0,0-12.683-7.013-14.056-9.477
				S79.535,428.733,81.615,427.827z"/>
			<path style="fill:#BA7B1F;" d="M158.555,288.702l-7.665,34.408c-14.609-1.303-29.728-5.168-45.256-11.087l-7.265-52.404
				L158.555,288.702z"/>
			<g>
				<path style="fill:#2C2F3F;" d="M105.472,306.663c14.759,5.749,30.04,10.085,45.622,12.934c0.625,0.114,0.894-0.844,0.264-0.959
					c-15.581-2.849-30.862-7.185-45.622-12.934C105.14,305.472,104.881,306.433,105.472,306.663L105.472,306.663z"/>
			</g>
			<path style="fill:#D99A26;" d="M105.215,271.104c0,0,25.89,15.811,55.782,25.88l36.229-27.56l-27.944-24.2
				C169.281,245.224,87.251,257.785,105.215,271.104z"/>
			<path style="fill:#D99A26;" d="M110.738,274.302c0,0-15.793-6.871-19.237-18.91c48.123-10.168,76.416-13.317,76.113-16.113
				l29.611,30.145L110.738,274.302z"/>
			<g>
				<path style="fill:#2C2F3F;" d="M102.291,254.656c14.079,11.962,29.684,22.019,46.512,29.662
					c4.711,2.14,9.506,4.093,14.361,5.881c0.601,0.221,0.861-0.739,0.264-0.959c-17.051-6.276-33.214-14.774-47.929-25.443
					c-4.297-3.116-8.461-6.408-12.506-9.844C102.509,253.541,101.803,254.241,102.291,254.656L102.291,254.656z"/>
			</g>
			<g>
				<path style="fill:#2C2F3F;" d="M108.523,252.122c13.56,11.527,28.258,21.59,44.459,29.043c4.613,2.122,9.317,4.042,14.082,5.796
					c0.601,0.221,0.861-0.739,0.264-0.959c-16.446-6.054-31.837-14.37-45.898-24.831c-4.179-3.109-8.235-6.38-12.204-9.753
					C108.742,251.007,108.035,251.707,108.523,252.122L108.523,252.122z"/>
			</g>
			<g>
				<path style="fill:#2C2F3F;" d="M192.804,266.671c-11.842,9.416-23.932,18.515-36.256,27.291
					c-0.517,0.368-0.021,1.23,0.502,0.858c12.393-8.824,24.549-17.978,36.457-27.446C194.007,266.975,193.3,266.276,192.804,266.671
					L192.804,266.671z"/>
			</g>
			<g>
				<g>
					<path style="fill:#D9C4A0;" d="M198.229,248.176c-0.113,0.57-0.203,1.137-0.266,1.704c-0.477,4.136,0.31,8.173,2.079,11.682
						c2.317,4.603,6.32,8.31,11.374,10.168c1.007,0.372,2.058,0.669,3.143,0.885c2.872,0.571,5.723,0.52,8.416-0.059
						c3.852-0.827,7.374-2.738,10.161-5.458c2.904-2.829,5.011-6.534,5.862-10.812c0.226-1.137,0.356-2.271,0.391-3.391
						c0.055-1.624-0.084-3.224-0.397-4.772c-1.245-6.163-5.259-11.517-10.931-14.41c-1.663-0.848-3.471-1.483-5.393-1.865
						c-1.18-0.235-2.355-0.365-3.518-0.396c-5.353-0.145-10.43,1.797-14.285,5.194C201.563,239.554,199.154,243.527,198.229,248.176
						z"/>
					<g>
						<path style="fill:#2C2F3F;" d="M213.239,275.998c5.454,1.353,11.202,0.563,16.088-2.215c0.428-0.243,0.043-0.904-0.386-0.66
							c-4.707,2.677-10.242,3.442-15.498,2.138C212.965,275.142,212.761,275.88,213.239,275.998L213.239,275.998z"/>
					</g>
					<polygon style="fill:#2C2F3F;" points="223.835,240.937 231.537,249.269 225.992,259.169 214.863,256.956 213.53,245.687 					
						"/>
					<path style="fill:#2C2F3F;" d="M198.229,248.176c-0.113,0.57-0.203,1.137-0.266,1.704l0.732,0.463l8.735-7.241l-2.564-6.456
						C201.563,239.554,199.154,243.527,198.229,248.176z"/>
					<path style="fill:#2C2F3F;" d="M237.616,249.538l1.772,3.357c0.055-1.624-0.084-3.224-0.397-4.772L237.616,249.538z"/>
					<path style="fill:#2C2F3F;" d="M219.15,231.452l5.155,4.513l3.756-2.252c-1.663-0.848-3.471-1.483-5.393-1.865
						C221.488,231.613,220.313,231.483,219.15,231.452z"/>
					<path style="fill:#2C2F3F;" d="M200.041,261.562c2.317,4.603,6.32,8.31,11.374,10.168l-2.108-9.315L200.041,261.562z"/>
					<path style="fill:#2C2F3F;" d="M222.974,272.556c3.852-0.827,7.374-2.738,10.161-5.458l-5.169-1.605L222.974,272.556z"/>
				</g>
				<g>
					<path style="fill:#2C2F3F;" d="M225.852,257.762c0.802,2.788,1.603,5.575,2.405,8.363c0.136,0.472-0.587,0.723-0.723,0.25
						c-0.802-2.788-1.603-5.575-2.405-8.363C224.994,257.54,225.716,257.289,225.852,257.762L225.852,257.762z"/>
				</g>
				<g>
					<path style="fill:#2C2F3F;" d="M230.842,248.939c2.506,0.173,5.011,0.346,7.517,0.519c0.49,0.034,0.336,0.783-0.149,0.75
						c-2.506-0.173-5.011-0.346-7.517-0.519C230.204,249.655,230.357,248.905,230.842,248.939L230.842,248.939z"/>
				</g>
				<g>
					<path style="fill:#2C2F3F;" d="M224.662,235.099c-0.241,2.465-0.483,4.931-0.724,7.396c-0.048,0.489-0.798,0.337-0.75-0.149
						c0.242-2.465,0.483-4.93,0.724-7.396C223.96,234.461,224.709,234.613,224.662,235.099L224.662,235.099z"/>
				</g>
				<g>
					<path style="fill:#2C2F3F;" d="M205.488,242.261c3.222,1.1,6.443,2.2,9.665,3.3c0.459,0.157,0.316,0.909-0.149,0.75
						c-3.222-1.1-6.443-2.2-9.665-3.3C204.88,242.854,205.023,242.102,205.488,242.261L205.488,242.261z"/>
				</g>
				<g>
					<path style="fill:#2C2F3F;" d="M215.612,256.395c-2.365,2.214-4.628,4.526-6.79,6.938c-0.328,0.366-0.902-0.14-0.572-0.507
						c2.162-2.412,4.425-4.725,6.79-6.938C215.396,255.554,215.972,256.058,215.612,256.395L215.612,256.395z"/>
				</g>
			</g>
		</g>
	</g>
	<g>
		<g style="opacity:0.5;">
			<ellipse style="fill:#D9C4A0;" cx="367.813" cy="409.616" rx="79.347" ry="7.245"/>
		</g>
		<g>
			<g>
				<path style="fill:#D47C5F;" d="M336,326.012c0.482,1.68,0.759,2.643,0.759,2.643l-9.149,0.869c0,0-0.597-0.78-1.66-2.187
					c-0.057-0.074-0.113-0.151-0.172-0.228c-6.79-9.018-30.76-41.302-42.154-62.799c-1.069-2.017-2.027-3.935-2.85-5.735
					c-2.483-5.428-3.737-9.735-3.086-12.151c3.562-13.228,77.157-45.883,77.157-45.883l24.444,42.534
					c-19.965,9.054-44.499,12.364-64.502,13.544c0,0,1.215,1.131,2.822,4.108c1.642,3.045,3.697,8.02,5.287,15.692
					C325.535,289.155,333.501,317.277,336,326.012z"/>
				<path style="fill:#2C2F3F;" d="M321.728,214.664l18.262,44.009c0,0,33.374-6.584,41.853-11.508
					c8.479-4.924-18.393-52.675-18.393-52.675L321.728,214.664z"/>
				<g>
					<path style="fill:#D9C4A0;" d="M325.427,213.355c5.279,14.669,11.105,29.137,17.464,43.371c0.198,0.444,0.93,0.218,0.729-0.232
						c-6.36-14.234-12.186-28.702-17.464-43.371C325.99,212.662,325.259,212.89,325.427,213.355L325.427,213.355z"/>
				</g>
				<path style="fill:#D9C4A0;" d="M336,326.012c-2.387,2.229-5.712,2.716-10.049,1.326c-0.057-0.074-0.113-0.151-0.172-0.228
					c-6.79-9.018-30.76-41.302-42.154-62.799c8.606-2.276,23.739-8.605,33.984-3.582c1.642,3.045,3.697,8.02,5.287,15.692
					C325.535,289.155,333.501,317.277,336,326.012z"/>
				<g>
					<path style="fill:#2C2F3F;" d="M287.028,268.651c9.911-3.39,20.395-4.774,30.847-4.072c0.491,0.033,0.489-0.732,0-0.765
						c-10.514-0.706-21.08,0.689-31.05,4.099C286.362,268.072,286.561,268.811,287.028,268.651L287.028,268.651z"/>
				</g>
				<g>
					<path style="fill:#A95249;" d="M314.522,255.789c-2.81-0.515-5.545-1.295-8.198-2.356c-0.453-0.181-0.816,0.492-0.36,0.675
						c2.715,1.086,5.507,1.899,8.384,2.426C314.831,256.622,315.007,255.878,314.522,255.789L314.522,255.789z"/>
				</g>
				<g>
					<g>
						<g>
							<g>
								<g>
									<g>
										<g>
											<g>
												<g>
													<path style="fill:#2C2F3F;" d="M330.7,327.69c0,0-3.048-2.015-4.406-0.405c-1.358,1.61-2.879,7.23-2.879,7.23
														s-4.651,10.06-7.053,11.744c-2.402,1.684-3.727,4.426-1.703,9.837l30.278-18.527c0,0-6.455-13.64-7.416-15.626
														c-0.961-1.986-2.686,3.025-2.686,3.025L330.7,327.69z"/>
												</g>
											</g>
										</g>
									</g>
								</g>
							</g>
						</g>
						<g>
							<path style="fill:#D9C4A0;" d="M344.937,337.57l-7.273,4.451l-23.005,14.076c0,0-1.451-2.939-0.98-4.245
								c0.833-2.309,7.192-1.987,8.83-4.587c3-4.762,6.496-2.062,8.879-4.248c2.383-2.187,1.362-4.823,4.934-8.366
								c3.573-3.543,5.586-3.477,5.586-3.477S345.486,334.664,344.937,337.57z"/>
						</g>
						<g>
							<g>
								<g>
									<g>
										<g>
											<path style="fill:#D9C4A0;" d="M325.201,329.094c1.047-0.221,2.121-0.047,3.025,0.534
												c0.344,0.221,0.047,0.786-0.299,0.564c-0.762-0.489-1.656-0.674-2.546-0.485
												C324.982,329.791,324.797,329.179,325.201,329.094L325.201,329.094z"/>
										</g>
									</g>
								</g>
							</g>
						</g>
						<g>
							<g>
								<g>
									<g>
										<g>
											<path style="fill:#D9C4A0;" d="M337.616,335.474c-5.8,0.422-10.428,4.823-11.191,10.572
												c-0.054,0.407-0.675,0.258-0.621-0.146c0.802-6.04,5.729-10.623,11.796-11.065
												C338.009,334.806,338.026,335.444,337.616,335.474L337.616,335.474z"/>
										</g>
									</g>
								</g>
							</g>
						</g>
					</g>
				</g>
			</g>
			<g>
				<g>
					<path style="fill:#D47C5F;" d="M399.333,113.323c0,0-26.954-15.159-40.056-18.578c-13.102-3.418-43.671-7.865-43.671-7.865
						l-2.077,4.94l40.398,16.488l36.57,27.447L399.333,113.323z"/>
					<g>
						<path style="fill:#A95249;" d="M297.223,86.599c0,0-3.746,1.858-3.283,2.959c0.463,1.101,3.215-0.619,4.866-0.895
							c1.651-0.275,5.848-1.307,5.848-1.307L297.223,86.599z"/>
						<path style="fill:#D47C5F;" d="M315.167,92.137c0,0-2.738,1.507-5.49,2.608c-2.752,1.101-4.61,3.772-4.885,1.445
							c-0.275-2.327,3.058-4.582,3.096-5.573c0.069-1.789-2.855-2.219-7.868-2.479c-6.581-0.342-7.885-1.786-7.544-2.073
							c1.31-1.102,5.527-0.447,10.664-1.09c5.137-0.642,10.279,0.686,12.981,1.981C316.122,86.956,316.047,90.149,315.167,92.137z"
							/>
					</g>
					<polygon style="fill:#BA7B1F;" points="411.132,119.531 388.491,104.965 371.324,126.498 391.004,149.982 					"/>
					<g>
						<path style="fill:#D99A26;" d="M421.221,243.752c-2.752-1.308-6.053-1.431-8.684-2.768l-0.002-0.001
							c-0.276-0.139-0.551-0.278-0.826-0.42c-13.676-6.99-25.565-14.378-34.437-22.433l-0.002-0.001
							c-0.167-0.151-0.333-0.304-0.498-0.456c-2.551-2.354-4.842-4.764-6.846-7.238c-0.134-0.164-0.265-0.329-0.395-0.492
							c-3.564-4.504-6.176-9.219-7.649-14.187c2.628-2.931,5.11-5.972,7.455-9.08c0.158-0.206,0.313-0.413,0.467-0.62
							c2.64-3.535,5.104-7.151,7.405-10.783c0.098-0.153,0.196-0.309,0.292-0.463c2.504-3.976,4.812-7.969,6.939-11.889
							c0.001-0.002,0.001-0.004,0.001-0.004c0.287-0.528,0.569-1.055,0.848-1.58l0.001-0.002c2.725-5.112,5.147-10.083,7.297-14.72
							c0.112-0.244,0.225-0.487,0.336-0.729c7.401-16.045,13.459-27.994,15.846-27.418c3.474,0.837,5.186,1.66,8.676,2.271
							l0.002,0.001c0.233,0.04,0.465,0.081,0.696,0.122c10.177,1.746,18.986,2.551,18.986,2.551s9.891,9.366,16.379,16.755
							c0.148,0.167,0.294,0.334,0.437,0.502c1.118,1.287,2.122,2.507,2.933,3.595c0.17,0.226,0.332,0.447,0.483,0.66
							c0.834,1.173,1.401,2.157,1.595,2.86c1.303,4.731,1.718,9.752,1.441,14.925l-0.001,0.002
							c-0.016,0.316-0.036,0.633-0.059,0.951c-0.34,4.918-1.292,9.96-2.682,15.01l-0.001,0.002
							c-0.055,0.201-0.111,0.399-0.168,0.598C448.215,212.07,421.221,243.752,421.221,243.752z"/>
					</g>
					<g>
						<path style="fill:#2C2F3F;" d="M415.112,194.601c-16.087,1.566-32.135,0.131-47.69-4.27c-0.279-0.079-0.398,0.355-0.12,0.434
							c15.599,4.413,31.672,5.856,47.81,4.286C415.398,195.023,415.401,194.573,415.112,194.601L415.112,194.601z"/>
					</g>
					<g>
						<path style="fill:#BA7B1F;" d="M428.274,156.659l-3.886,5.606l-28.419,18.728l-9.539-4.119l28.375-18.747L407.561,155
							l-1.899,2.74l-7.066-3.051l5.786-8.346L428.274,156.659z"/>
					</g>
					<g>
						<path style="fill:#2C2F3F;" d="M420.006,128.87c-1.022,2.367,1.146,4.154,3.071,5.05c2.736,1.273,5.737,1.889,8.748,1.891
							c0.387,0,0.457-0.605,0.065-0.605c-2.34-0.002-4.657-0.365-6.866-1.149c-1.98-0.702-5.637-2.221-4.452-4.964
							C420.727,128.734,420.161,128.511,420.006,128.87L420.006,128.87z"/>
					</g>
					<g>
						<path style="fill:#2C2F3F;" d="M445.888,187.838c-4.413,11.159-10.596,21.345-17.442,31.167
							c-2.919,4.188-5.93,8.312-8.977,12.409c-0.236,0.317-0.727-0.051-0.491-0.369c8.371-11.254,16.778-22.742,22.863-35.436
							c1.257-2.622,2.407-5.292,3.476-7.996C445.462,187.245,446.033,187.47,445.888,187.838L445.888,187.838z"/>
					</g>
					<g>
						<g>
							<g>
								<path style="fill:#D47C5F;" d="M440.321,127.132c-1.279,2.064-18.634,11.049-18.81-0.757l3.11-5.651l1.884-4.734
									l1.318-3.314l14.029-0.986C440.563,117.959,441.355,122.245,440.321,127.132z"/>
							</g>
							<g>
								<path style="fill:#2C2F3F;" d="M438.094,116.468c-6.898,6.698-12.469,6.983-14.192,6.062l2.603-6.539L438.094,116.468z"/>
							</g>
						</g>
						<g>
							<path style="fill:#742823;" d="M422.971,94.266c0,0-2.054-1.855-1.608-3.488c0.446-1.633,1.358-2.859,1.358-2.859
								s-2.429-6.197-0.313-7.98c0,0,1.498,2.803,2.062,2.668c0,0,0.512-3.619,3.476-3.906c0,0,0.649,3.517,1.294,3.719
								c0,0,1.138-3.814,4.209-3.935c0,0-0.481,4.695,2.768,5.163c3.249,0.468,10.181,2.321,12.171,6.069
								c1.989,3.748,1.008,7.623,0.372,9.466L422.971,94.266z"/>
							<g>
								<path style="fill:#D47C5F;" d="M443.737,108.067c-0.104,0.552-0.228,1.056-0.379,1.529
									c-0.349,1.093-0.833,2.015-1.506,2.931c-0.887,1.206-2.101,2.408-3.761,3.981c-2.608,2.47-6.293,2.947-9.682,2.379
									c-9.001-1.508-8.771-7.779-6.452-16.915c1.441-5.672,0.362-9.138,2.178-11.128l0.003,0.001
									c0.114-0.087,0.23-0.171,0.345-0.252c2.756-1.96,6.198-2.714,9.546-2.215c0.645,0.097,1.258,0.209,1.843,0.338
									c0.133,0.025,0.266,0.055,0.395,0.088c0.055,0.01,0.109,0.023,0.161,0.038c0.148,0.033,0.293,0.069,0.437,0.109
									c0.104,0.025,0.207,0.052,0.307,0.082c0.235,0.063,0.46,0.13,0.68,0.198c7.026,2.207,8.069,6.892,7.585,11.258
									C445.109,103.456,444.074,106.275,443.737,108.067z"/>
							</g>
							<path style="fill:#F4F0DE;" d="M427.882,108.628c-0.069,1.097-0.863,1.94-1.775,1.883s-1.595-0.993-1.526-2.09
								c0.069-1.097,0.863-1.941,1.775-1.884C427.267,106.595,427.95,107.53,427.882,108.628z"/>
							<g>
								<g>
									<path style="fill:#2C2F3F;" d="M425.433,101.766c-0.091,0.505-0.471,0.858-0.85,0.79c-0.378-0.068-0.612-0.532-0.521-1.037
										c0.091-0.505,0.471-0.858,0.85-0.79C425.291,100.798,425.524,101.262,425.433,101.766z"/>
								</g>
							</g>
							<g>
								<g>
									<path style="fill:#2C2F3F;" d="M431.582,102.394c-0.091,0.505-0.471,0.858-0.85,0.79c-0.378-0.068-0.612-0.532-0.521-1.037
										c0.091-0.505,0.471-0.858,0.85-0.79C431.44,101.425,431.673,101.89,431.582,102.394z"/>
								</g>
							</g>
							<g>
								<path style="fill:#A95249;" d="M434.438,105.632c-0.092,0.492-0.932,0.747-1.877,0.57c-0.944-0.177-1.635-0.72-1.542-1.212
									c0.092-0.492,0.933-0.747,1.877-0.57C433.84,104.598,434.531,105.14,434.438,105.632z"/>
							</g>
							<g>
								<path style="fill:#A95249;" d="M421.407,104.276c0.275,0.268,0.736,0.492,1.281,0.595c0.943,0.177,1.783-0.077,1.876-0.571
									c0.092-0.491-0.599-1.033-1.542-1.21c-0.519-0.097-1.007-0.064-1.357,0.068L421.407,104.276z"/>
							</g>
							<g>
								<g>
									<path style="fill:#742823;" d="M431.066,99.923c0.507-0.328,1.311-0.462,1.698,0.13c0.235,0.359,0.667,0.556,1.076,0.342
										c0.353-0.184,0.58-0.712,0.342-1.076c-0.843-1.29-2.538-1.662-3.851-0.813c-0.361,0.233-0.555,0.668-0.342,1.076
										C430.175,99.935,430.701,100.159,431.066,99.923L431.066,99.923z"/>
								</g>
							</g>
							<g>
								<g>
									<path style="fill:#742823;" d="M424.003,98.597c0.664-0.253,1.225-0.212,1.757,0.293c0.745,0.708,1.864-0.431,1.118-1.14
										c-0.916-0.871-2.127-1.14-3.314-0.688C422.61,97.425,423.042,98.963,424.003,98.597L424.003,98.597z"/>
								</g>
							</g>
							<g>
								<path style="fill:#2C2F3F;" d="M427.572,105.324c0.148,0.002,0.277-0.106,0.297-0.256c0.022-0.162-0.092-0.31-0.254-0.332
									c-0.561-0.075-0.958-0.278-1.194-0.438c0.96-0.799,1.368-2.317,1.387-2.389c0.041-0.158-0.053-0.319-0.211-0.361
									c-0.159-0.041-0.32,0.053-0.361,0.211c-0.005,0.017-0.46,1.705-1.447,2.261c-0.077,0.044-0.131,0.12-0.146,0.208
									c-0.015,0.088,0.01,0.177,0.069,0.244c0.024,0.028,0.615,0.687,1.825,0.849C427.549,105.323,427.56,105.324,427.572,105.324
									z"/>
							</g>
						</g>
						<g>
							<path style="fill:#2C2F3F;" d="M440.047,109.987c1.262,0.256,2.374,0.077,3.312-0.391c-0.349,1.093-0.833,2.015-1.506,2.931
								C441.043,111.92,440.41,111.094,440.047,109.987z"/>
						</g>
						<g>
							<path style="fill:#742823;" d="M443.437,100.048c-3.75,0.303-5.249,6.325-6.883,4.935c-1.634-1.39,3.631-10.69-1.125-11.312
								c-4.757-0.622-4.341,0.379-6.522,0.129c-3.71-0.426-3.367-2.257-4.768-2.956c0.114-0.087,0.23-0.171,0.345-0.252
								c2.756-1.96,6.198-2.714,9.546-2.215c0.645,0.097,1.258,0.209,1.843,0.338c0.133,0.025,0.266,0.055,0.395,0.088
								c0.055,0.01,0.109,0.023,0.161,0.038c0.148,0.033,0.293,0.069,0.437,0.109c0.104,0.025,0.207,0.052,0.307,0.082
								c0.232,0.06,0.461,0.127,0.68,0.198c7.026,2.207,8.069,6.892,7.585,11.258C444.923,100.151,444.259,99.98,443.437,100.048z"
								/>
						</g>
						<g>
							<path style="fill:#742823;" d="M436.555,104.983c1.634,1.389,3.131-4.632,6.882-4.935c0.823-0.067,1.487,0.102,1.999,0.44
								c-0.328,2.967-1.363,5.787-1.7,7.578c-0.101,0.537-0.221,1.031-0.367,1.492c2.07-3.455,4.428-7.547,5.093-9.337
								c0.135-0.361,0.232-0.707,0.297-1.039c-0.067-0.107-0.135-0.212-0.208-0.313c-0.31-0.447-0.674-0.844-1.078-1.202
								c-0.64-0.561-1.387-1.018-2.19-1.386c-2.607-1.2-5.834-1.484-8.151-1.503C438.493,97.424,435.218,103.845,436.555,104.983z"
								/>
						</g>
						<g>
							<g>
								<path style="fill:#A95249;" d="M424.98,112.837c0.636,0.353,1.356,0.489,1.998,0.078c0.325-0.208-0.013-0.702-0.338-0.494
									c-0.458,0.293-0.958,0.121-1.397-0.122C424.905,112.112,424.644,112.651,424.98,112.837L424.98,112.837z"/>
							</g>
						</g>
						<g>
							<g>
								<path style="fill:#D47C5F;" d="M437.618,107.234c-0.213-1.531,0.352-3.064,1.423-4.178c1.387-1.443,3.853-3.602,5.71-2.979
									c2.729,0.916,2.592,3.477,1.839,5.969c-0.754,2.492-3.048,5.511-6.444,4.316
									C438.448,109.766,437.793,108.488,437.618,107.234z"/>
							</g>
						</g>
						<g>
							<g>
								<g>
									<path style="fill:#2C2F3F;" d="M441.041,107.41c0.062-1.091,0.202-2.218,0.792-3.166c0.526-0.847,1.797-1.979,2.895-1.375
										c0.368,0.203,0.748-0.336,0.377-0.541c-1.058-0.582-2.258-0.12-3.095,0.664c-1.208,1.131-1.536,2.787-1.626,4.371
										C440.36,107.786,441.017,107.835,441.041,107.41L441.041,107.41z"/>
								</g>
							</g>
						</g>
					</g>
				</g>
			</g>
			<g>
				<path style="fill:#D47C5F;" d="M389.494,251.448c-18.355-1.021-53.191-36.608-53.81-58.811
					c-3.666-0.729-7.445-1.993-11.266-3.67c-29.606-12.959-61.634-50.308-61.634-50.308l-3.513-9.438l76.225,37.201l16.543,8.074
					c0,0,57.484,40.77,65.607,51.782C425.769,237.288,411.933,253.781,389.494,251.448z"/>
				<path style="fill:#D9C4A0;" d="M335.496,166.422c-1.104,5.783-3.941,15.475-11.078,22.545
					c-29.606-12.959-61.634-50.308-61.634-50.308l-3.513-9.438L335.496,166.422z"/>
				<g>
					<path style="fill:#2C2F3F;" d="M330.577,165.349c-1.694,7.686-5.496,14.745-10.989,20.383
						c-0.344,0.353,0.197,0.894,0.541,0.541c5.58-5.726,9.464-12.911,11.186-20.72C331.42,165.072,330.683,164.867,330.577,165.349
						L330.577,165.349z"/>
				</g>
				<g>
					<path style="fill:#A95249;" d="M335.635,192.568c1.734-1.098,3.07-2.665,3.863-4.559c0.189-0.451-0.485-0.814-0.675-0.36
						c-0.746,1.781-1.967,3.24-3.6,4.274C334.808,192.187,335.218,192.832,335.635,192.568L335.635,192.568z"/>
				</g>
				<g>
					<g>
						<g>
							<g>
								<g>
									<g>
										<g>
											<g>
												<g>
													<path style="fill:#2C2F3F;" d="M261.634,133.371c0,0,2.278-2.858,0.794-4.353c-1.484-1.495-6.946-3.508-6.946-3.508
														s-9.609-5.525-11.073-8.066c-1.465-2.541-4.078-4.105-9.648-2.568l15.771,31.801c0,0,11.263-3.131,13.327-3.913
														c2.063-0.782,0.12-5.033,0.12-5.033L261.634,133.371z"/>
												</g>
											</g>
										</g>
									</g>
								</g>
							</g>
						</g>
						<g>
							<path style="fill:#D9C4A0;" d="M250.531,146.676l-3.788-7.639l-11.982-24.161c0,0,3.056-1.185,4.316-0.6
								c2.226,1.034,1.342,7.34,3.786,9.202c4.478,3.41,1.478,6.653,3.445,9.22c1.967,2.568,4.683,1.784,7.895,5.656
								c3.212,3.873,2.968,5.872,2.968,5.872S253.377,147.481,250.531,146.676z"/>
						</g>
						<g>
							<g>
								<g>
									<g>
										<g>
											<path style="fill:#D9C4A0;" d="M260.723,127.769c0.128,1.063-0.141,2.116-0.799,2.966
												c-0.25,0.323-0.787-0.023-0.535-0.348c0.554-0.716,0.818-1.59,0.709-2.493
												C260.048,127.489,260.674,127.36,260.723,127.769L260.723,127.769z"/>
										</g>
									</g>
								</g>
							</g>
						</g>
						<g>
							<g>
								<g>
									<g>
										<g>
											<path style="fill:#D9C4A0;" d="M253.268,139.57c0.094-5.814-3.88-10.814-9.539-12.084c-0.401-0.09-0.198-0.695,0.2-0.606
												c5.946,1.334,10.074,6.648,9.976,12.73C253.898,140.021,253.261,139.981,253.268,139.57L253.268,139.57z"/>
										</g>
									</g>
								</g>
							</g>
						</g>
					</g>
				</g>
			</g>
			<path style="fill:#2C2F3F;" d="M367.849,183.549l-22.287,36.538c0,0,25.816,35.034,49.896,33.834
				c24.08-1.2,32.664-18.722,32.664-18.722C408.816,215.406,389.057,197.1,367.849,183.549z"/>
			<g>
				<path style="fill:#D9C4A0;" d="M370.255,186.193c-7.026,12.238-14.476,24.23-22.335,35.951c-0.274,0.409,0.403,0.765,0.675,0.36
					c7.859-11.721,15.309-23.712,22.335-35.951C371.175,186.125,370.499,185.767,370.255,186.193L370.255,186.193z"/>
			</g>
			<g>
				<path style="fill:#D9C4A0;" d="M422.481,228.888c-6.511,8.132-15.755,14.52-26.477,14.8
					c-11.172,0.292-19.77-7.133-27.666-14.097c-4.887-4.31-9.622-8.787-14.357-13.263c-0.358-0.339-0.877,0.223-0.519,0.562
					c4.439,4.196,8.878,8.393,13.442,12.453c4.099,3.645,8.254,7.35,12.906,10.285c4.375,2.761,9.215,4.608,14.423,4.813
					c5.451,0.215,10.891-1.222,15.683-3.781c5.136-2.742,9.503-6.728,13.126-11.253
					C423.349,229.024,422.789,228.503,422.481,228.888L422.481,228.888z"/>
			</g>
			<g>
				<path style="fill:#D47C5F;" d="M445.189,178.123c0,0,11.792,27.467,15.63,37.504c3.837,10.037,13.175,57.038,13.175,57.038
					l6.548-1.317c0,0,2.128-38.05,1.263-50.331c-0.865-12.282-11.691-54.139-11.691-54.139L445.189,178.123z"/>
				<g>
					<g>
						<g>
							<g>
								<g>
									<g>
										<g>
											<g>
												<g>
													<g>
														<g>
															<path style="fill:#D47C5F;" d="M475.656,264.697c2.923-0.935,5.993,0.823,7.025,3.713
																c0.545,1.524,1.283,3.147,2.211,4.232c2.229,2.604,5.586,5.06,6.34,6.693c1.113,2.411-1.609,1.521-1.931,1.364
																c-2.062-1.005-4.67-2.882-4.67-2.882s3.753,4.453,5.803,5.483c2.05,1.03,2.491,3.049,0.028,3.181
																c-2.462,0.132-7.619-3.914-8.745-5.421c0,0,1.606,3.344,4.337,4.831c2.73,1.487,3.508,2.386,4.167,3.459
																c0.659,1.073-1.618,2.174-5.376,0.001c-3.758-2.173-4.653-3.95-5.778-5.742c0,0,0.306,1.689,1.395,4.291
																c1.089,2.601,4.382,4.068,4.285,5.752c-0.098,1.722-3.816-0.134-5.409-2.076c-1.592-1.941-2.915-3.218-3.855-6.287
																c-0.94-3.068-1.732-6.034-1.854-8.006c-0.122-1.972-1.476-8.929,0.09-11.309
																C474.122,265.366,474.827,264.961,475.656,264.697z"/>
														</g>
													</g>
												</g>
											</g>
										</g>
									</g>
								</g>
							</g>
						</g>
					</g>
					<g>
						<g>
							<g>
								<g>
									<g>
										<path style="fill:#D47C5F;" d="M473.166,271.827c0,0-1.686,5.795-1.199,7.774c0.487,1.979,0.168,5.223,1.522,5.008
											c1.355-0.215,1.638-4.216,1.638-4.216L473.166,271.827z"/>
									</g>
								</g>
							</g>
						</g>
					</g>
				</g>
				<g>
					<path style="fill:#A95249;" d="M462.258,217.949c2.614-2.077,5.734-3.214,9.073-3.288c0.492-0.011,0.462-0.775-0.03-0.764
						c-3.461,0.077-6.743,1.253-9.454,3.408C461.465,217.607,461.872,218.255,462.258,217.949L462.258,217.949z"/>
				</g>
				<g>
					<path style="fill:#A95249;" d="M463.89,216.655c0.968-1.27,1.936-2.539,2.905-3.808c0.296-0.389-0.263-0.911-0.561-0.519
						c-0.968,1.27-1.936,2.539-2.905,3.808C463.033,216.524,463.592,217.046,463.89,216.655L463.89,216.655z"/>
				</g>
				<path style="fill:#BA7B1F;" d="M441.603,167.057c0.903,7.311,2.41,16.998,4.537,22.486c0,0,24.884-5.524,29.197-12.603
					c0,0-6.196-27.168-17.979-32.015c0,0-0.306,0.055-0.839,0.19C446.728,147.596,440.365,157.032,441.603,167.057z"/>
			</g>
			<g>
				<g>
					<path style="fill:#D9C4A0;" d="M289.264,119.062c0.39-0.43,0.759-0.871,1.105-1.324c2.537-3.301,3.938-7.168,4.227-11.087
						c0.381-5.14-1.144-10.378-4.522-14.571c-0.672-0.837-1.42-1.632-2.239-2.376c-2.169-1.968-4.64-3.39-7.248-4.279
						c-3.729-1.273-7.732-1.446-11.521-0.547c-3.946,0.932-7.659,3.026-10.589,6.256c-0.779,0.859-1.473,1.764-2.081,2.707
						c-0.883,1.364-1.586,2.807-2.115,4.297c-2.102,5.925-1.416,12.581,1.96,17.98c0.99,1.583,2.213,3.057,3.665,4.374
						c0.891,0.808,1.832,1.524,2.813,2.149c4.516,2.878,9.869,3.825,14.921,2.895C281.969,124.74,286.079,122.573,289.264,119.062z"
						/>
					<g>
						<path style="fill:#2C2F3F;" d="M249.923,100.821c-1.188,5.49-0.234,11.217,2.692,16.015c0.256,0.42,0.917,0.036,0.66-0.386
							c-2.818-4.621-3.76-10.133-2.615-15.425C250.764,100.545,250.027,100.34,249.923,100.821L249.923,100.821z"/>
					</g>
					<polygon style="fill:#2C2F3F;" points="263.582,112.097 261.264,100.989 271.112,95.352 279.517,102.976 274.863,113.324 					
						"/>
					<path style="fill:#2C2F3F;" d="M289.264,119.062c0.39-0.43,0.759-0.871,1.105-1.324l-0.39-0.773l-11.216,1.715l-1.122,6.856
						C281.969,124.74,286.079,122.573,289.264,119.062z"/>
					<path style="fill:#2C2F3F;" d="M256.19,97.631l0.207-3.79c-0.883,1.364-1.586,2.807-2.115,4.297L256.19,97.631z"/>
					<path style="fill:#2C2F3F;" d="M262.72,122.64l-2.099-6.522l-4.379-0.002c0.99,1.583,2.213,3.057,3.665,4.374
						C260.798,121.299,261.739,122.015,262.72,122.64z"/>
					<path style="fill:#2C2F3F;" d="M294.597,106.651c0.381-5.14-1.144-10.378-4.522-14.571l-2.985,9.072L294.597,106.651z"/>
					<path style="fill:#2C2F3F;" d="M280.587,85.425c-3.729-1.273-7.732-1.446-11.521-0.547l3.607,4.036L280.587,85.425z"/>
				</g>
				<g>
					<path style="fill:#2C2F3F;" d="M270.508,96.63c0.747-2.803,1.493-5.606,2.24-8.409c0.126-0.475,0.875-0.318,0.748,0.158
						c-0.747,2.803-1.493,5.606-2.24,8.409C271.13,97.263,270.382,97.107,270.508,96.63L270.508,96.63z"/>
				</g>
				<g>
					<path style="fill:#2C2F3F;" d="M261.69,101.63c-2.06-1.438-4.119-2.875-6.179-4.312c-0.402-0.281,0.115-0.845,0.514-0.566
						c2.06,1.438,4.119,2.875,6.179,4.312C262.606,101.344,262.089,101.908,261.69,101.63L261.69,101.63z"/>
				</g>
				<g>
					<path style="fill:#2C2F3F;" d="M259.87,116.677c1.475-1.99,2.951-3.979,4.426-5.969c0.293-0.395,0.857,0.121,0.566,0.514
						c-1.475,1.99-2.951,3.979-4.426,5.969C260.144,117.585,259.579,117.069,259.87,116.677L259.87,116.677z"/>
				</g>
				<g>
					<path style="fill:#2C2F3F;" d="M279.997,120.4c-2.197-2.601-4.393-5.201-6.59-7.802c-0.313-0.37,0.197-0.942,0.514-0.566
						c2.197,2.601,4.393,5.201,6.59,7.802C280.823,120.204,280.314,120.775,279.997,120.4L279.997,120.4z"/>
				</g>
				<g>
					<path style="fill:#2C2F3F;" d="M278.586,103.071c3.166-0.682,6.297-1.5,9.391-2.456c0.47-0.145,0.702,0.584,0.23,0.729
						c-3.094,0.956-6.225,1.775-9.391,2.456C278.339,103.903,278.104,103.175,278.586,103.071L278.586,103.071z"/>
				</g>
			</g>
		</g>
	</g>
	<g>
		<g style="opacity:0.5;">
			<ellipse style="fill:#D9C4A0;" cx="641.224" cy="448.436" rx="63.434" ry="7.245"/>
		</g>
		<g>
			<g>
				<g>
					<path style="fill:#D9C4A0;" d="M569.367,89.502c-0.52-0.259-1.023-0.535-1.511-0.831c-3.564-2.152-6.276-5.244-7.971-8.789
						c-2.225-4.649-2.71-10.083-1.089-15.218c0.322-1.024,0.729-2.037,1.222-3.028c1.305-2.622,3.089-4.846,5.194-6.623
						c3.01-2.542,6.676-4.16,10.533-4.701c4.015-0.568,8.235,0.032,12.139,1.975c1.038,0.517,2.014,1.107,2.923,1.764
						c1.318,0.949,2.499,2.038,3.533,3.233c4.114,4.755,5.896,11.204,4.715,17.461c-0.346,1.835-0.949,3.653-1.823,5.408
						c-0.536,1.077-1.152,2.086-1.839,3.025c-3.159,4.324-7.801,7.153-12.846,8.125C578.228,92.137,573.612,91.614,569.367,89.502z"
						/>
					<g>
						<path style="fill:#2C2F3F;" d="M573.776,94.947c5.399,1.564,11.172,0.986,16.16-1.6c0.437-0.227,0.051-0.886-0.386-0.66
							c-4.809,2.492-10.371,3.029-15.571,1.522C573.506,94.073,573.303,94.81,573.776,94.947L573.776,94.947z"/>
					</g>
					<polygon style="fill:#2C2F3F;" points="590.755,73.671 588.874,62.481 577.65,60.813 572.595,70.972 580.695,78.918 					"/>
					<path style="fill:#2C2F3F;" d="M569.367,89.502c-0.52-0.259-1.023-0.535-1.511-0.831l0.081-0.862l11.071-2.483l3.54,5.978
						C578.228,92.137,573.612,91.614,569.367,89.502z"/>
					<path style="fill:#2C2F3F;" d="M592.379,57.507l-1.572-3.455c1.318,0.949,2.499,2.038,3.533,3.233L592.379,57.507z"/>
					<path style="fill:#2C2F3F;" d="M595.395,83.178l-0.418-6.839l4.079-1.595c-0.346,1.835-0.949,3.653-1.823,5.408
						C596.697,81.23,596.081,82.239,595.395,83.178z"/>
					<path style="fill:#2C2F3F;" d="M559.885,79.881c-2.225-4.649-2.71-10.083-1.089-15.218l6.081,7.364L559.885,79.881z"/>
					<path style="fill:#2C2F3F;" d="M565.213,55.013c3.01-2.542,6.676-4.16,10.533-4.701l-1.892,5.072L565.213,55.013z"/>
				</g>
				<g>
					<path style="fill:#2C2F3F;" d="M578.677,61.784c-1.715-2.339-3.43-4.678-5.146-7.017c-0.291-0.396-0.931,0.022-0.64,0.419
						c1.715,2.339,3.43,4.678,5.146,7.017C578.328,62.6,578.969,62.182,578.677,61.784L578.677,61.784z"/>
				</g>
				<g>
					<path style="fill:#2C2F3F;" d="M588.71,63.233c1.395-2.088,2.791-4.177,4.186-6.265c0.273-0.408-0.414-0.745-0.685-0.341
						c-1.395,2.088-2.791,4.176-4.186,6.265C587.753,63.3,588.44,63.637,588.71,63.233L588.71,63.233z"/>
				</g>
				<g>
					<path style="fill:#2C2F3F;" d="M595.88,76.587c-2.098-1.317-4.196-2.633-6.294-3.95c-0.417-0.261-0.754,0.425-0.341,0.685
						c2.098,1.317,4.196,2.633,6.294,3.95C595.956,77.533,596.293,76.846,595.88,76.587L595.88,76.587z"/>
				</g>
				<g>
					<path style="fill:#2C2F3F;" d="M578.487,87.377c1.1-3.222,2.2-6.443,3.3-9.665c0.157-0.459-0.526-0.806-0.685-0.341
						c-1.1,3.222-2.2,6.443-3.3,9.665C577.646,87.495,578.328,87.842,578.487,87.377L578.487,87.377z"/>
				</g>
				<g>
					<path style="fill:#2C2F3F;" d="M573.496,70.722c-3.197,0.517-6.411,0.893-9.642,1.129c-0.49,0.036-0.441,0.799,0.051,0.763
						c3.23-0.235,6.444-0.612,9.642-1.129C574.029,71.408,573.983,70.644,573.496,70.722L573.496,70.722z"/>
				</g>
			</g>
			<g>
				<g>
					<g>
						<g>
							<g>
								<g>
									<g>
										<g>
											<g>
												<g>
													<path style="fill:#2C2F3F;" d="M665.366,350.869c0,0-2.653,2.513-1.392,4.2s6.391,4.441,6.391,4.441
														s8.746,6.808,9.843,9.529c1.097,2.721,3.467,4.632,9.196,3.886l-11.192-33.686c0,0-14.747,3.2-16.899,3.686
														c-2.152,0.487,2.339,3.301,2.339,3.301L665.366,350.869z"/>
												</g>
											</g>
										</g>
									</g>
								</g>
							</g>
						</g>
						<g>
							<path style="fill:#D9C4A0;" d="M678.212,339.239l2.689,8.092l8.503,25.594c0,0-3.191,0.748-4.357-0.006
								c-2.061-1.334-0.307-7.455-2.469-9.639c-3.96-4-0.538-6.794-2.128-9.61c-1.591-2.817-4.389-2.418-7.031-6.7
								c-2.642-4.282-2.122-6.228-2.122-6.228S675.506,338.046,678.212,339.239z"/>
						</g>
						<g>
							<g>
								<g>
									<g>
										<g>
											<path style="fill:#D9C4A0;" d="M665.488,356.544c0.021-1.07,0.435-2.076,1.204-2.826
												c0.293-0.285,0.776,0.132,0.482,0.419c-0.648,0.632-1.031,1.461-1.049,2.371
												C666.118,356.915,665.48,356.956,665.488,356.544L665.488,356.544z"/>
										</g>
									</g>
								</g>
							</g>
						</g>
					</g>
				</g>
				<path style="fill:#D47C5F;" d="M652.362,345.225l-2.603,15.405c0,0-29.375,2.845-48.988,0.773
					c-6.24-0.66-11.491-1.814-14.496-3.718c-12.448-7.888-28.401-68.705-28.401-68.705l37.384-4.404
					c0,0,11.055,38.935,16.143,46.904c0.785,1.228,2.3,2.402,4.302,3.514C626.692,341.089,652.362,345.225,652.362,345.225z"/>
				<g>
					<path style="fill:#A95249;" d="M587.26,358.182c2.614-0.744,4.848-2.291,6.456-4.483c0.289-0.394-0.278-0.907-0.57-0.51
						c-1.537,2.094-3.631,3.556-6.13,4.268C586.543,357.592,586.787,358.317,587.26,358.182L587.26,358.182z"/>
				</g>
				<path style="fill:#D9C4A0;" d="M652.362,345.225l-2.603,15.405c0,0-29.375,2.845-48.988,0.773
					c10.231-4.683,17.953-20.648,14.931-26.408C626.692,341.089,652.362,345.225,652.362,345.225z"/>
				<g>
					<path style="fill:#2C2F3F;" d="M620.237,337.632c-0.01,9.069-4.294,17.795-11.33,23.487c-0.379,0.307,0.038,0.948,0.422,0.638
						c7.259-5.872,11.661-14.808,11.672-24.168C621.001,337.097,620.238,337.141,620.237,337.632L620.237,337.632z"/>
				</g>
				<g>
					<path style="fill:#2C2F3F;" d="M624.199,339.43c0.005,8.423-3.732,16.658-10.184,22.098c-0.372,0.313,0.045,0.955,0.422,0.638
						c6.672-5.625,10.531-14.059,10.526-22.778C624.963,338.896,624.199,338.939,624.199,339.43L624.199,339.43z"/>
				</g>
				<g>
					<path style="fill:#46495D;" d="M545.339,237.861c0,0-0.495,24.008-4.229,40.749c-1.07,4.805-2.411,9.013-4.081,11.88
						c-1.269,2.177-2.562,4.254-3.864,6.232c-16.111,24.444-34.086,33.89-34.086,33.89l-4.517-4.598
						c0,0,22.614-43.716,22.988-51.033c0.895-17.411,1.152-69.041,1.152-69.041L545.339,237.861z"/>
					<path style="fill:#2C2F3F;" d="M541.111,278.61c-1.07,4.805-2.411,9.013-4.081,11.88c-1.269,2.177-2.562,4.254-3.864,6.232
						c-0.178-0.405-0.354-0.879-0.528-1.427C529.223,284.513,537.665,279.976,541.111,278.61z"/>
					<g>
						<path style="fill:#2C2F3F;" d="M518.432,276.298c3.683,0.602,7.265,1.61,10.721,3.016c0.456,0.185,0.654-0.554,0.203-0.737
							c-3.457-1.407-7.038-2.414-10.721-3.016C518.154,275.482,517.947,276.219,518.432,276.298L518.432,276.298z"/>
					</g>
					<g>
						<path style="fill:#BA7B1F;" d="M483.174,347.858c0,0-0.033,5.409,1.508,5.515c1.541,0.106,1.155-4.074,1.797-6.142
							c0.643-2.068,1.892-7.517,1.892-7.517L483.174,347.858z"/>
						<path style="fill:#D99A26;" d="M498.524,331.207c0,0,0.148,4.04-0.181,7.86c-0.329,3.82,1.677,7.52-1.172,6.484
							c-2.849-1.036-3.514-6.198-4.638-6.819c-2.027-1.12-3.389,2.065-6.606,7.705c-4.223,7.404-4.256,6.967-5.059,7.348
							c-2,0.95,0.138-6.54,2.384-12.849c2.247-6.309,6.772-11.478,9.84-13.846C493.093,327.09,496.739,329.033,498.524,331.207z"/>
						<path style="fill:#BA7B1F;" d="M492.381,327.502l6.162,4.433l6.44-4.098c0,0-7.349-9.497-8.241-8.326
							C495.382,321.294,493.237,325.543,492.381,327.502z"/>
					</g>
					<g>
						<path style="fill:#D99A26;" d="M499.856,317.083c2.809,1.963,5.218,4.363,7.193,7.164c0.313,0.444,1.053,0.023,0.737-0.426
							c-2.064-2.928-4.573-5.426-7.509-7.478C499.83,316.03,499.41,316.771,499.856,317.083L499.856,317.083z"/>
					</g>
				</g>
				<g>
					<g>
						<path style="fill:#2C2F3F;" d="M518.705,205.94c1.008,1.37,6.131,8.59,12.246,17.757c3.291,4.931,6.867,10.427,10.246,15.874
							c0,0,0.003,0.007,0.008,0.016c0.203,0.325,0.404,0.652,0.605,0.978c8.681,14.085,15.843,27.625,13.072,30.085l66.627-23.893
							c0,0-2.458-7.234-7.138-17.73c-1.87-4.192-4.094-8.902-6.658-13.882c-2.543-4.946-5.422-10.152-8.624-15.374l-0.005-0.01
							c-4.611-7.53-7.247-17.977-12.586-24.291c-4.589-5.428-17.973-3.344-26.813-3.55c-6.908-0.161-12.547,0.293-12.547,0.293
							s-6.809,6.209-13.792,13.35C525.221,193.867,516.856,203.433,518.705,205.94z"/>
					</g>
					<g>
						<path style="fill:#2C2F3F;" d="M625.828,270.286c4.474-6.934-3.099-25.218-11.457-41.26
							c-2.504-4.804-5.076-9.408-7.418-13.444c-4.959-8.549-8.876-14.558-8.876-14.558l-56.879,38.548c0,0,0.003,0.006,0.007,0.015
							c0.039,0.074,0.215,0.411,0.495,0.979c2.311,4.688,7.943,26.06,12.218,42.56C560.544,308.706,619.391,280.258,625.828,270.286
							z"/>
					</g>
					<g>
						<path style="fill:#46495D;" d="M549.328,217.642c1.168-4.633,4.123-7.995,8.541-9.701c5.876-2.269,12.512-0.494,15.721,5.238
							c2.733,4.883,1.298,7.503-1.746,12.241c-1.384,2.135-3.377,6.158-3.443,8.249l7.776-3.003l-1.901-3.397l7.423-2.867
							l5.062,9.044l-23.859,9.214l-3.446-6.157c0.291-4.76,0.795-6.452,2.411-9.709c1.64-3.886,5.325-7.478,3.852-10.111
							c-1.212-2.165-3.247-2.154-5.28-1.369c-2.386,0.921-3.063,3.455-3.628,5.326L549.328,217.642z"/>
					</g>
					<g>
						<g>
							<g>
								<path style="fill:#46495D;" d="M590.202,198.914c7.128,8.243,13.072,17.502,18.138,27.134
									c4.948,9.407,9.131,19.289,12.069,29.513c1.409,4.903,2.53,9.909,3.056,14.989c0.04,0.389-0.561,0.51-0.602,0.117
									c-0.98-9.453-3.874-18.706-7.343-27.516c-4.025-10.222-9.054-20.085-15.002-29.322c-3.263-5.068-6.829-9.945-10.773-14.506
									C589.487,199.024,589.944,198.616,590.202,198.914L590.202,198.914z"/>
							</g>
						</g>
					</g>
					<g>
						<g>
							<g>
								<path style="fill:#46495D;" d="M551.99,258.982c15.29,4.288,31.772,3.874,46.868-1.026c4.343-1.41,8.555-3.204,12.591-5.338
									c0.349-0.184,0.621,0.365,0.272,0.549c-14.227,7.522-30.67,10.63-46.668,8.942c-4.483-0.473-8.919-1.329-13.259-2.547
									C551.414,259.456,551.611,258.876,551.99,258.982L551.99,258.982z"/>
							</g>
						</g>
					</g>
				</g>
				<g>
					<path style="fill:#D99A26;" d="M530.937,165.372c0,0,0.092,5.56-3.96,5.016c-4.052-0.544-3.323-3.321-3.323-3.321
						s-5.157,2.09-5.299-0.849c-0.142-2.939,0.18-4.526,0.18-4.526s-4.926,1.872-5.462-0.68c-0.536-2.551,1.447-4.313,1.447-4.313
						s-5.096-3.337-4.348-6.113c0.748-2.776,3.049-2.908,3.049-2.908s-1.553-5.833,1.706-7.617c3.26-1.783,5.725,0.356,7.029-3.546
						c1.303-3.902,5.81-6.16,8.164-5.422c2.354,0.739,1.717,2.364,3.914,3.285c2.663,1.116,3.904-2.447,7.226-0.943
						c4.064,1.84-1.073,7.838-1.073,7.838L530.937,165.372z"/>
					<g>
						<g>
							<g>
								<path style="fill:#D47C5F;" d="M536.816,184.407c0,0,14.101,3.645,18.223-8.574l-5.665-5.653l-3.738-3.73l-2.616-2.612
									l-13.755,4.826C533.068,174.099,535.473,179.33,536.816,184.407z"/>
							</g>
						</g>
						<g>
							<g>
								<path style="fill:#2C2F3F;" d="M534.804,171.666c9.316,3.539,14.735,1.522,15.996-0.064l-5.164-5.153L534.804,171.666z"/>
							</g>
						</g>
					</g>
					<g>
						<g>
							<g>
								<path style="fill:#D47C5F;" d="M525.982,165.99c0.325,0.483,0.651,0.912,0.989,1.299c0.781,0.897,1.621,1.575,2.638,2.17
									c1.34,0.783,2.989,1.428,5.215,2.243c3.497,1.278,7.2,0.219,10.191-1.715c7.945-5.134,5.15-11.007-0.811-18.748
									c-3.703-4.806-4.099-8.547-6.646-9.694l-0.002,0.001c-0.144-0.036-0.289-0.068-0.432-0.098
									c-3.428-0.733-7.013-0.035-9.994,1.815c-0.574,0.357-1.111,0.716-1.615,1.079c-0.117,0.079-0.23,0.162-0.34,0.246
									c-0.048,0.032-0.094,0.067-0.137,0.103c-0.127,0.092-0.251,0.186-0.371,0.283c-0.088,0.066-0.175,0.135-0.258,0.204
									c-0.197,0.156-0.385,0.313-0.566,0.468c-5.779,4.987-4.846,9.874-2.592,13.83
									C522.782,162.166,524.926,164.423,525.982,165.99z"/>
							</g>
						</g>
						<g>
							<path style="fill:#A95249;" d="M542.968,164.163c1.018-0.054,1.992-0.564,2.346-1.565c0.163-0.461-0.53-0.785-0.694-0.321
								c-0.27,0.762-0.954,1.084-1.725,1.126C542.403,163.428,542.477,164.189,542.968,164.163L542.968,164.163z"/>
						</g>
						<path style="fill:#F4F0DE;" d="M544.663,159.394c0.259,1.264-0.493,2.486-1.679,2.73c-1.187,0.243-2.359-0.584-2.618-1.848
							c-0.259-1.264,0.492-2.486,1.679-2.73C543.231,157.303,544.404,158.13,544.663,159.394z"/>
						<g>
							<g>
								<path style="fill:#2C2F3F;" d="M536.572,153.819c0.236,0.455,0.151,0.967-0.19,1.145c-0.341,0.177-0.809-0.048-1.046-0.503
									c-0.236-0.455-0.151-0.967,0.19-1.145C535.868,153.139,536.336,153.364,536.572,153.819z"/>
							</g>
						</g>
						<g>
							<g>
								<path style="fill:#2C2F3F;" d="M541.824,150.559c0.236,0.455,0.151,0.967-0.19,1.145c-0.341,0.177-0.809-0.048-1.046-0.503
									c-0.236-0.455-0.151-0.967,0.19-1.145C541.119,149.879,541.587,150.104,541.824,150.559z"/>
							</g>
						</g>
						<g>
							<g>
								<path style="fill:#A95249;" d="M533.831,159.852c0.29,0.43,1.195,0.328,2.02-0.229c0.826-0.557,1.26-1.356,0.97-1.787
									c-0.29-0.43-1.195-0.328-2.02,0.229C533.975,158.622,533.541,159.421,533.831,159.852z"/>
							</g>
						</g>
						<g>
							<g>
								<path style="fill:#A95249;" d="M545.674,153.206c-0.151,0.368-0.498,0.771-0.975,1.092
									c-0.824,0.556-1.728,0.659-2.019,0.228c-0.289-0.429,0.145-1.229,0.97-1.785c0.454-0.306,0.932-0.475,1.32-0.493
									L545.674,153.206z"/>
							</g>
						</g>
						<g>
							<g>
								<g>
									<path style="fill:#2C2F3F;" d="M535.129,152.225c-0.609,0.141-1.29,0.644-1.127,1.359c0.099,0.434-0.066,0.897-0.521,1.048
										c-0.391,0.13-0.948-0.081-1.048-0.521c-0.354-1.558,0.59-3.089,2.169-3.456c0.433-0.1,0.898,0.068,1.048,0.521
										C535.781,151.569,535.568,152.123,535.129,152.225L535.129,152.225z"/>
								</g>
							</g>
						</g>
						<g>
							<g>
								<g>
									<path style="fill:#2C2F3F;" d="M540.782,149.256c-0.709-0.202-1.284-0.11-1.788,0.459
										c-0.706,0.798-1.963-0.279-1.257-1.077c0.868-0.981,2.094-1.367,3.361-1.006
										C542.117,147.922,541.808,149.548,540.782,149.256L540.782,149.256z"/>
								</g>
							</g>
						</g>
						<g>
							<g>
								<path style="fill:#2C2F3F;" d="M540.238,156.737c-0.14,0.063-0.307,0.013-0.388-0.122c-0.087-0.145-0.04-0.333,0.105-0.42
									c0.503-0.302,0.797-0.658,0.956-0.907c-1.242-0.366-2.254-1.643-2.301-1.703c-0.104-0.133-0.081-0.326,0.052-0.43
									c0.134-0.104,0.326-0.081,0.43,0.052c0.011,0.014,1.138,1.433,2.306,1.557c0.092,0.01,0.174,0.06,0.224,0.138
									c0.05,0.077,0.063,0.173,0.035,0.261c-0.012,0.037-0.302,0.906-1.387,1.558C540.26,156.726,540.249,156.732,540.238,156.737
									z"/>
							</g>
						</g>
					</g>
					<g>
						<g>
							<path style="fill:#2C2F3F;" d="M530.283,166.3c-1.096,0.762-2.227,1.049-3.312,0.989c0.781,0.897,1.621,1.575,2.638,2.17
								C530.13,168.549,530.393,167.503,530.283,166.3z"/>
						</g>
					</g>
					<g>
						<g>
							<path style="fill:#D99A26;" d="M522.972,158.235c3.693-1.252,7.594,3.862,8.578,1.868c0.984-1.994-7.849-8.68-3.578-11.227
								c4.271-2.547,4.287-1.423,6.26-2.557c3.356-1.93,2.277-3.531,3.323-4.772c-0.144-0.036-0.289-0.068-0.432-0.098
								c-3.428-0.733-7.013-0.035-9.994,1.815c-0.574,0.357-1.111,0.716-1.615,1.079c-0.117,0.079-0.23,0.162-0.34,0.246
								c-0.048,0.032-0.094,0.067-0.137,0.103c-0.127,0.092-0.251,0.186-0.371,0.283c-0.088,0.066-0.175,0.135-0.258,0.204
								c-0.197,0.152-0.386,0.31-0.566,0.468c-5.779,4.987-4.846,9.874-2.592,13.83
								C521.601,158.944,522.162,158.509,522.972,158.235z"/>
						</g>
					</g>
					<g>
						<g>
							<path style="fill:#D99A26;" d="M531.549,160.104c-0.984,1.993-4.883-3.122-8.577-1.868c-0.811,0.274-1.373,0.708-1.721,1.24
								c1.531,2.689,3.675,4.947,4.732,6.513c0.317,0.47,0.634,0.89,0.963,1.269c-3.39-2.438-7.315-5.362-8.684-6.792
								c-0.277-0.288-0.512-0.577-0.71-0.866c0.02-0.13,0.041-0.257,0.069-0.384c0.111-0.553,0.294-1.081,0.532-1.587
								c0.378-0.797,0.901-1.539,1.515-2.219c1.988-2.213,4.942-3.81,7.14-4.78C526.6,153.707,532.354,158.471,531.549,160.104z"/>
						</g>
					</g>
					<g>
						<g>
							<g>
								<path style="fill:#D47C5F;" d="M531.463,162.683c-0.427-1.544-1.594-2.771-3.071-3.391
									c-1.913-0.804-5.147-1.844-6.657-0.488c-2.22,1.993-1.038,4.374,0.703,6.436c1.741,2.062,5.165,3.992,7.906,1.46
									C531.714,165.433,531.812,163.947,531.463,162.683z"/>
							</g>
						</g>
					</g>
					<g>
						<g>
							<g>
								<g>
									<path style="fill:#2C2F3F;" d="M528.278,164.256c-0.507-1.012-1.104-2.027-2.054-2.687c-0.849-0.59-2.523-1.145-3.32-0.118
										c-0.267,0.344-0.85-0.013-0.581-0.36c0.768-0.989,2.099-1.042,3.218-0.641c1.614,0.579,2.606,2.021,3.343,3.492
										C529.081,164.334,528.476,164.651,528.278,164.256L528.278,164.256z"/>
								</g>
							</g>
						</g>
					</g>
				</g>
				<path style="fill:#D47C5F;" d="M688.425,405.053l-6.81,1.403c0,0-27.448-32.694-40.391-47.767
					c-1.959-2.284-3.587-4.161-4.737-5.461c-8.736-9.878-33.909-66.161-33.909-66.161l29.203-11.9
					c19.857,30.634,25.875,63.111,27.04,63.999c2.207,0.577,4.662,3.379,7.187,7.526
					C676.592,364.067,688.425,405.053,688.425,405.053z"/>
				<g>
					<path style="fill:#A95249;" d="M634.856,350.845c3.405,1.019,7.138-0.529,8.868-3.621c0.241-0.431-0.441-0.777-0.681-0.349
						c-1.573,2.81-4.952,4.142-8.025,3.222C634.546,349.957,634.388,350.705,634.856,350.845L634.856,350.845z"/>
				</g>
				<path style="fill:#D9C4A0;" d="M688.425,405.053l-6.81,1.403c0,0-27.448-32.694-40.391-47.767
					c6.075-0.426,17.002-2.578,24.784-11.997C676.592,364.067,688.425,405.053,688.425,405.053z"/>
				<g>
					<path style="fill:#2C2F3F;" d="M645.303,363.046c9.037-0.362,17.776-4.569,23.467-11.639c0.308-0.382-0.26-0.894-0.57-0.51
						c-5.572,6.923-14.089,11.031-22.939,11.386C644.769,362.302,644.811,363.066,645.303,363.046L645.303,363.046z"/>
				</g>
				<g>
					<path style="fill:#2C2F3F;" d="M647.646,366.121c8.804-0.348,17.397-4.302,23.047-11.124c0.314-0.378-0.255-0.89-0.57-0.51
						c-5.529,6.674-13.905,10.529-22.52,10.87C647.112,365.377,647.154,366.14,647.646,366.121L647.646,366.121z"/>
				</g>
				<path style="fill:#2C2F3F;" d="M680.394,406.012c0,0-2.336-3.789,1.561-4.767c1.318-0.331,5.616,4.447,6.47,3.807l-1.03-3.463
					c0,0,6.236,3.051,7.432,6.218c1.196,3.167,1.945,13.427,2.803,18.352c1.377,7.898-3.344,14.736-7.209,14.95
					c-3.865,0.214-5.644-11.941-6.816-17.747C682.912,419.929,680.394,406.012,680.394,406.012z"/>
				<path style="fill:#D9C4A0;" d="M693.14,405.48c0,0-2.095,0.111-1.869,2.652c0.226,2.54,3.308,4.412,3.458,7.126
					c0.15,2.715,1.84,17.853-1.04,21.161c-2.88,3.308-4.87,3.157-6.097,2.292c-1.227-0.865,0.008,2.726,2.611,3.007
					c2.604,0.281,7.029-3.942,7.963-7.929c1.354-5.776-1.288-16.607-1.378-18.219C696.699,413.958,696.913,406.467,693.14,405.48z"
					/>
				<path style="fill:#D99A26;" d="M553.917,283.125l12.757,53.307c0,0,32.467-1.768,44.028-10.236l-5.237-17.81l2.85,0.879
					l9.947,19.018c0,0,30.431-10.777,35.511-18.483l-27.262-50.737C626.51,259.063,602.141,281.302,553.917,283.125z"/>
				<g>
					<path style="fill:#BA7B1F;" d="M605.758,307.862c-3.794-0.509-7.405-1.097-10.805-2.964c-0.433-0.237-0.78,0.444-0.349,0.681
						c3.455,1.897,7.131,2.512,10.992,3.03C606.081,308.675,606.246,307.928,605.758,307.862L605.758,307.862z"/>
				</g>
				<g>
					<path style="fill:#2C2F3F;" d="M609.009,322.58c-13.765,5.377-28.484,7.891-43.215,8.418c-0.492,0.018-0.45,0.781,0.042,0.763
						c14.794-0.529,29.593-3.057,43.417-8.456C609.709,323.126,609.469,322.4,609.009,322.58L609.009,322.58z"/>
				</g>
				<g>
					<path style="fill:#2C2F3F;" d="M651.528,307.365c-10.563,7.544-22.281,13.343-34.686,17.164
						c-0.47,0.145-0.227,0.87,0.244,0.725c12.464-3.839,24.252-9.671,34.864-17.25C652.349,307.718,651.93,307.078,651.528,307.365
						L651.528,307.365z"/>
				</g>
				<g>
					<path style="fill:#2C2F3F;" d="M622.293,261.337c9.55,15.516,18.444,31.403,26.681,47.654c0.222,0.438,0.859,0.013,0.638-0.422
						c-8.236-16.252-17.131-32.138-26.681-47.654C622.672,260.496,622.034,260.917,622.293,261.337L622.293,261.337z"/>
				</g>
				<g>
					<path style="fill:#2C2F3F;" d="M618.717,264.078c10.094,15.013,18.854,30.766,26.273,47.266c0.2,0.444,0.927,0.206,0.725-0.244
						c-7.446-16.559-16.23-32.376-26.361-47.444C619.081,263.249,618.442,263.669,618.717,264.078L618.717,264.078z"/>
				</g>
				<g>
					<path style="fill:#D99A26;" d="M557.869,90.632c-1.754,2.968-4.08,5.485-6.898,7.471c-0.401,0.283,0.018,0.923,0.422,0.638
						c2.924-2.061,5.336-4.68,7.156-7.76C558.8,90.556,558.118,90.21,557.869,90.632L557.869,90.632z"/>
				</g>
				<g>
					<path style="fill:#46495D;" d="M590.943,182.565c-14.308,2.217-23.698-1.67-29.624-9.855c0,0,14.968-33.148,10.249-41.656
						c-4.055-7.312-25.851-41.163-25.851-41.163l5.656-5.944c0,0,31.624,27.268,43.284,43.378c0.75,1.032,1.414,2.019,1.985,2.95
						c2.998,4.899,3.017,13.557,0.504,22.485C592.159,170.487,590.943,182.565,590.943,182.565z"/>
					<g>
						<path style="fill:#2C2F3F;" d="M572.102,132.432c3.447-0.378,6.807-1.193,10.017-2.511c0.453-0.186,0.213-0.912-0.244-0.725
							c-3.148,1.291-6.435,2.101-9.816,2.472C571.573,131.722,571.612,132.486,572.102,132.432L572.102,132.432z"/>
					</g>
					<path style="fill:#2C2F3F;" d="M597.148,152.761c-10.083-10.286-5.652-20.588-2.49-25.436c0.75,1.032,1.414,2.019,1.985,2.95
						C599.642,135.176,599.12,143.698,597.148,152.761z"/>
					<g>
						<path style="fill:#BA7B1F;" d="M546.169,91.127c0,0,1.389,2.575,2.319,4.223c0.678,1.202,8.068-8.642,8.068-8.642
							s-3.073-2.045-4.607-3.289C551.949,83.418,550.494,88.62,546.169,91.127z"/>
					</g>
					<g>
						<g>
							<g>
								<g>
									<path style="fill:#D99A26;" d="M551.269,88.593c-2.51,2.135-5.36,3.21-8.101,1.481c-0.73-0.461-1.523-1.036-2.38-1.761
										c-1.617-1.366-5.56-4.443-7.118-5.579c-1.559-1.135-2.88-1.674-1.809-2.624c1.071-0.95,7.536,2.404,7.536,2.404
										s-6.545-8.7-5.508-10.665c1.037-1.965,2.95,1.279,2.95,1.279s-1.859-4.14-0.6-4.858c1.259-0.717,3.349,3.501,3.349,3.501
										s-1.302-3.639-0.353-4.374c0.949-0.736,2.386,1.879,3.004,3.275c0,0-1.062-3.37,0.17-3.794
										c1.232-0.423,1.967,2.783,2.799,4.785c0.832,2.003,2.103,4.858,4.366,6.225c0.974,0.588,2.587,2.327,3.159,3.109
										C554.555,83.493,553.72,86.508,551.269,88.593L551.269,88.593z"/>
								</g>
							</g>
						</g>
						<g>
							<g>
								<g>
									<g>
										<g>
											<g>
												<path style="fill:#BA7B1F;" d="M536.971,72.738c0.489,1.805,1.291,3.471,2.41,4.997
													c0.207,0.282-0.275,0.585-0.481,0.304c-1.146-1.564-1.973-3.275-2.475-5.126
													C536.335,72.582,536.881,72.405,536.971,72.738L536.971,72.738z"/>
											</g>
										</g>
									</g>
								</g>
							</g>
						</g>
						<g>
							<g>
								<g>
									<g>
										<g>
											<g>
												<path style="fill:#BA7B1F;" d="M539.597,71.178c0.545,1.625,1.17,3.231,2.284,4.586c0.223,0.271-0.26,0.572-0.481,0.304
													c-1.143-1.39-1.79-3.047-2.349-4.715C538.941,71.026,539.487,70.851,539.597,71.178L539.597,71.178z"/>
											</g>
										</g>
									</g>
								</g>
							</g>
						</g>
						<g>
							<g>
								<g>
									<g>
										<g>
											<g>
												<path style="fill:#BA7B1F;" d="M542.447,70.241c0.341,1.538,0.958,2.95,1.869,4.257c0.199,0.286-0.282,0.59-0.481,0.304
													c-0.938-1.346-1.582-2.8-1.934-4.386C541.827,70.083,542.372,69.904,542.447,70.241L542.447,70.241z"/>
											</g>
										</g>
									</g>
								</g>
							</g>
						</g>
						<g>
							<g>
								<g>
									<g>
										<g>
											<g>
												<path style="fill:#BA7B1F;" d="M539.455,82.354c2.011,0.703,3.721,1.853,5.092,3.387
													c0.234,0.261-0.25,0.563-0.481,0.304c-1.306-1.462-2.963-2.54-4.875-3.208
													C538.847,82.717,539.115,82.235,539.455,82.354L539.455,82.354z"/>
											</g>
										</g>
									</g>
								</g>
							</g>
						</g>
						<g>
							<g>
								<g>
									<g>
										<g>
											<g>
												<path style="fill:#BA7B1F;" d="M541.823,82.838c3.113-1.218,6.697-0.686,9.181,1.343
													c0.275,0.225-0.111,0.632-0.385,0.407c-2.344-1.915-5.692-2.39-8.624-1.243
													C541.652,83.48,541.481,82.972,541.823,82.838L541.823,82.838z"/>
											</g>
										</g>
									</g>
								</g>
							</g>
						</g>
						<g>
							<g>
								<g>
									<g>
										<g>
											<g>
												<path style="fill:#BA7B1F;" d="M538.446,78.434c1.409-2.154,3.828-3.51,6.497-3.609
													c0.368-0.014,0.391,0.522,0.021,0.536c-2.454,0.091-4.709,1.32-6.01,3.308C538.76,78.966,538.25,78.733,538.446,78.434
													L538.446,78.434z"/>
											</g>
										</g>
									</g>
								</g>
							</g>
						</g>
					</g>
				</g>
			</g>
		</g>
	</g>
	<g>
		<g>
			<path style="fill:#D9C4A0;" d="M92.577,120.536c-3.541,0-6.422-2.881-6.422-6.422s2.881-6.422,6.422-6.422
				c3.541,0,6.422,2.881,6.422,6.422S96.118,120.536,92.577,120.536z M92.577,108.711c-2.979,0-5.403,2.424-5.403,5.403
				c0,2.979,2.424,5.402,5.403,5.402c2.979,0,5.403-2.424,5.403-5.402C97.979,111.135,95.556,108.711,92.577,108.711z"/>
		</g>
		<g>
			<path style="fill:#D9C4A0;" d="M259.789,310.971c-3.541,0-6.422-2.881-6.422-6.422c0-3.541,2.881-6.422,6.422-6.422
				c3.541,0,6.422,2.881,6.422,6.422C266.211,308.09,263.33,310.971,259.789,310.971z M259.789,299.147
				c-2.979,0-5.403,2.424-5.403,5.403c0,2.979,2.424,5.402,5.403,5.402c2.979,0,5.402-2.424,5.402-5.402
				C265.192,301.57,262.768,299.147,259.789,299.147z"/>
		</g>
		<g>
			<path style="fill:#D9C4A0;" d="M466.879,128.441c-3.541,0-6.422-2.881-6.422-6.422c0-3.541,2.881-6.422,6.422-6.422
				c3.541,0,6.422,2.881,6.422,6.422C473.301,125.56,470.42,128.441,466.879,128.441z M466.879,116.617
				c-2.979,0-5.403,2.424-5.403,5.403c0,2.979,2.424,5.402,5.403,5.402s5.402-2.424,5.402-5.402
				C472.281,119.04,469.858,116.617,466.879,116.617z"/>
		</g>
		<g>
			<path style="fill:#D9C4A0;" d="M649.901,245.746c-3.541,0-6.422-2.881-6.422-6.422c0-3.541,2.881-6.422,6.422-6.422
				c3.541,0,6.422,2.881,6.422,6.422C656.323,242.865,653.443,245.746,649.901,245.746z M649.901,233.921
				c-2.979,0-5.403,2.424-5.403,5.403s2.424,5.402,5.403,5.402s5.402-2.423,5.402-5.402S652.88,233.921,649.901,233.921z"/>
		</g>
	</g>
</g>
</svg>
